<?xml version="1.0" encoding="utf-8"?>
<!-- Generator: Adobe Illustrator 23.0.1, SVG Export Plug-In . SVG Version: 6.00 Build 0)  -->
<svg version="1.1" id="Layer_1" xmlns="http://www.w3.org/2000/svg" xmlns:xlink="http://www.w3.org/1999/xlink" x="0px" y="0px"
	 viewBox="0 0 150 150" style="enable-background:new 0 0 150 150;" xml:space="preserve">
<style type="text/css">
	.st0{fill-rule:evenodd;clip-rule:evenodd;fill:url(#SVGID_1_);}
	.st1{fill-rule:evenodd;clip-rule:evenodd;fill:url(#SVGID_2_);}
	.st2{fill-rule:evenodd;clip-rule:evenodd;fill:url(#SVGID_3_);}
	.st3{fill-rule:evenodd;clip-rule:evenodd;fill:url(#SVGID_4_);}
	.st4{fill-rule:evenodd;clip-rule:evenodd;fill:url(#SVGID_5_);}
	.st5{fill:url(#SVGID_6_);}
	.st6{fill:url(#SVGID_7_);}
	.st7{fill:url(#SVGID_8_);}
	.st8{fill:url(#SVGID_9_);}
	.st9{fill:url(#SVGID_10_);}
	.st10{fill:url(#SVGID_11_);}
	.st11{fill:url(#SVGID_12_);}
</style>
<linearGradient id="SVGID_1_" gradientUnits="userSpaceOnUse" x1="12.0985" y1="77.4792" x2="101.288" y2="77.4792" gradientTransform="matrix(1 0 0 -1 0 152)">
	<stop  offset="0" style="stop-color:#F4E59A"/>
	<stop  offset="9.090900e-02" style="stop-color:#FEFDDA"/>
	<stop  offset="0.2303" style="stop-color:#FFD26D"/>
	<stop  offset="0.3636" style="stop-color:#BA9A61"/>
	<stop  offset="0.503" style="stop-color:#FEEEB4"/>
	<stop  offset="0.6242" style="stop-color:#E4B54A"/>
	<stop  offset="0.7426" style="stop-color:#91682F"/>
	<stop  offset="0.8303" style="stop-color:#91682F"/>
	<stop  offset="1" style="stop-color:#FDD675"/>
</linearGradient>
<path class="st0" d="M78,32.9c1.3,0,2.8,0.2,4.4,0.6c0.1,0,0.3,0.1,0.4,0.1c0.2,0,0.3,0.1,0.5,0.1c0.1,0,0.3,0.1,0.5,0.1
	s0.3,0.1,0.5,0.1c0.2,0.1,0.3,0.1,0.5,0.1c0.1,0,0.3,0.1,0.5,0.1c0.2,0.1,0.4,0.1,0.6,0.1l0.4,0.1c0.2,0.1,0.4,0.1,0.6,0.2l0.3,0.1
	c0.2,0.1,0.4,0.1,0.6,0.2l0.2,0.1h0.1c0.2,0.1,0.4,0.1,0.6,0.2h0.1l0.1,0.1l0,0c0.3,0.1,0.5,0.2,0.8,0.3l0,0l0.1,0.1l0,0
	c0.1,0.1,0.2,0.1,0.3,0.1c1,0.4,1.9,0.8,2.8,1.2c0.1,0.1,0.2,0.1,0.3,0.2l0,0c0.1,0.1,0.3,0.1,0.4,0.2l0,0c0.1,0.1,0.3,0.1,0.4,0.2
	c0.1,0.1,0.3,0.1,0.5,0.2c0.1,0.1,0.3,0.2,0.4,0.3s0.3,0.1,0.4,0.2c0.1,0.1,0.3,0.2,0.4,0.3c0.2,0.1,0.3,0.2,0.5,0.3
	c0.1,0.1,0.3,0.2,0.4,0.3s0.3,0.2,0.4,0.3c0.2,0.1,0.3,0.2,0.5,0.3l0.3,0.2l0.1,0.1c0.1,0.1,0.3,0.2,0.5,0.3l0.1,0.1l0.2,0.1h0.1
	c0.2,0.1,0.3,0.3,0.5,0.4l0,0h0.1l0.2,0.1c0.2,0.2,0.4,0.3,0.6,0.5l0.1,0.1c0.2,0.1,0.4,0.3,0.6,0.5l0.1,0.1
	c0.3,0.2,0.5,0.4,0.7,0.6l0.2,0.2c0.2,0.1,0.4,0.3,0.5,0.5l0.2,0.1c0.2,0.2,0.4,0.3,0.5,0.5l0.1,0.1c0.2,0.2,0.4,0.4,0.6,0.6L104,45
	c0.2,0.1,0.3,0.3,0.4,0.5l0.3,0.3c0.1,0.1,0.3,0.3,0.4,0.4c0.1,0.1,0.2,0.3,0.3,0.4c0.1,0.1,0.3,0.3,0.4,0.4
	c0.1,0.1,0.2,0.2,0.3,0.3c0.1,0.1,0.2,0.3,0.3,0.4c0.1,0.2,0.3,0.3,0.4,0.4l0.2,0.3c0.1,0.2,0.3,0.3,0.4,0.5
	c0.1,0.1,0.2,0.3,0.3,0.4c0.1,0.2,0.2,0.3,0.4,0.5c0.1,0.1,0.1,0.2,0.2,0.3c0.1,0.2,0.3,0.4,0.4,0.5l0.1,0.2
	c0.1,0.2,0.3,0.4,0.4,0.6l0.2,0.3c0.1,0.2,0.3,0.4,0.4,0.6l0.1,0.2c0.1,0.2,0.3,0.4,0.4,0.6l0.1,0.2c0.1,0.3,0.3,0.5,0.5,0.8
	l0.1,0.2c0.1,0.2,0.3,0.4,0.4,0.7l0.1,0.2c0.1,0.3,0.3,0.5,0.4,0.8l0.1,0.1c0.1,0.3,0.3,0.6,0.4,0.8l0.1,0.1l0.1,0.3h-1.4h-3.9h-0.4
	h-1.2h-0.6h-6.6H98h-5.8h-0.6h-1.8H76.5h-6H70h-0.9H48.3h-0.1H45h-1h-0.5h-1.3h-0.5h-3.3H38h-0.4H37c0.6-1.2,1.2-2.4,1.8-3.5
	c0.5-0.9,1-1.7,1.6-2.6c0.5-0.8,1.2-1.7,1.9-2.5l0.1-0.1l0,0l0.1-0.2l0,0l0.1-0.1l0.1-0.1l0.1-0.1l0.1-0.1l0.1-0.1l0.1-0.2l0.1-0.1
	l0,0l0.1-0.2l0.1-0.1l0.1-0.1l0.1-0.1h0.1l0.1-0.1l0,0l0.1-0.2l0,0l0.1-0.1l0.1-0.1l0.1-0.1l0.1-0.1l0.1-0.1l0,0l0.2-0.2l0.1-0.1
	l0,0l0.1-0.2l0.2-0.1l0.1-0.1l0.1-0.1l0.1-0.1l0.1-0.1l0.2-0.2l0.1-0.1l0.2-0.2l0.1-0.1l0,0l0.1-0.1l0.1-0.1l0.1-0.1l0.1-0.1
	l0.1-0.1l0.2-0.1l0,0l0.1-0.1l0.1-0.1l0.1-0.1l0.1-0.1l0.1-0.1l0,0l0.2-0.1l0,0l0.1-0.1l0.1-0.1l0.1-0.1l0.2-0.2l0.1-0.1
	c1.2-1.2,2.4-2.1,3.5-2.7l0,0l0.1-0.1l0.2-0.1l0.3-0.2l0,0l0.1-0.1l0.3-0.2l0.1-0.1l0.3-0.1l0,0H53l0-0.3l0,0h0.1l0.3-0.2h0.1l0,0
	c0.1-0.1,0.2-0.1,0.3-0.2l0.1-0.1l0.3-0.1l0.1-0.1l0.3-0.1l0.1-0.1l0.3-0.2h0.1l0.3-0.2l0.1-0.1l0.3-0.2h0.1l0.3-0.2h0.1l0.3-0.2
	h0.1l0.3-0.2h0.1l0.3-0.2h0.1l0.3-0.2h0.1l0.3-0.2h0.1c0.1-0.1,0.3-0.1,0.4-0.2l0,0l0.3-0.2h0.1l0.3-0.1l0,0c0.1,0,0.3-0.1,0.4-0.1
	l0,0h0.1l0.3-0.1l0,0h0.1c0.1,0,0.2-0.1,0.3-0.1l0,0h0.1c0.1-0.1,0.3-0.1,0.4-0.1l0,0c0.1-0.1,0.3-0.1,0.4-0.1l0,0h0.1
	c0.1,0,0.3-0.1,0.4-0.1l0,0l0,0c0.1,0,0.3-0.1,0.4-0.1l0,0l0,0l0.3-0.1h0.1c0.3-0.1,0.5-0.2,0.8-0.3l0,0l0,0l0,0
	c0.1-0.1,0.3-0.1,0.4-0.1c0.4-0.1,0.7-0.2,1-0.3l0,0c0.3-0.1,0.7-0.2,1-0.2l0,0c0.3-0.1,0.7-0.1,1-0.2l0,0c0.3-0.1,0.7-0.1,1-0.2
	l0,0l0,0l0,0c0.3-0.1,0.7-0.1,1-0.2h0.1c0.3,0,0.6-0.1,1-0.1h0.1c0.3-0.1,0.6-0.1,1-0.1h0.1c0.3,0,0.6-0.1,0.9-0.1h0.1
	c0.3,0,0.6,0,0.9,0h0.1c0.3,0,0.6,0,0.9,0h0.1c0.3,0,0.6,0,0.9,0h0.2c0.3,0,0.6,0,0.8,0h0.2c0.3,0,0.5,0,0.8,0.1h0.2L78,32.9
	L78,32.9z M112.8,91.9c-0.4,1-1,2-1.5,2.9l0,0c-0.1,0.1-0.1,0.3-0.2,0.4l0,0l-0.1,0.1l-0.1,0.2l0,0c-0.1,0.1-0.1,0.3-0.2,0.4l0,0
	c-5.4,8.9-14.1,15.9-24.9,18.8c-10,2.7-20.1,1.5-28.8-2.7l0,0l0,0c-1-0.4-1.9-1-2.9-1.5c-7.3-4.2-13.4-10.7-17.1-18.8h0.4h0.8h0.4
	h0.3h0.5h8.1h0.4h13.4h1.6h1.3h9.3h5.8h0.4h1.6H83h15h0.4h1.9h12.5V91.9z M37.6,92.3h0.7c0.3,1.2,0.6,2.3,1.1,3.3
	C38.7,94.5,38.2,93.4,37.6,92.3L37.6,92.3z M38.7,92.3h0.5c2.6,3,5.7,5.3,9.1,6.9c0.9,4.5,2.7,8.2,5.5,10.8
	c-4.4-2.6-8.4-6.1-11.6-10.3c-0.5-0.6-0.9-1.3-1.3-1.9C39.9,96.1,39.2,94.2,38.7,92.3L38.7,92.3z M39.7,92.3h7.8
	c0,0.9,0.1,1.7,0.1,2.6c0.1,1.4,0.3,2.6,0.5,3.9C45,97.1,42.1,95,39.7,92.3L39.7,92.3z M47.9,92.3h13.9l0.1,0.1
	c0.3,2.6,0.6,5.1,1,7.4c0.2,1,0.4,1.9,0.5,2.8c-4.5-0.3-9-1.2-13.2-2.9c-0.5-0.2-1-0.4-1.5-0.7c-0.3-1.3-0.5-2.7-0.6-4.1
	C48,93.9,47.9,93.1,47.9,92.3L47.9,92.3z M63.3,92.3h1.5l1.5,1.1l1.2,1.2l-0.1,0.9c0,0,1.2,1,2.2,1.4s2.9,0.8,3.4,0.9
	s2.4,0.3,2.4,0.3s1.8-0.9,2.3-0.8s2.2,0.8,2.2,0.8l1.1,0.1l0.7,2.7c-4.7,1.2-11.2,2.1-18,1.7c-0.2-0.9-0.4-1.9-0.6-2.9
	c-0.4-2.3-0.7-4.6-1-7.1l0,0l1,1.1l0.4-0.9L63.3,92.3z M73.6,92.3h5.8l0.5,2c-0.2,0.3-0.4,0.6-0.7,0.8c-0.6,0.3-1.9,0.5-3,0.4
	c-1-0.2-2.5-2.2-2.5-2.2L73.6,92.3z M79.9,92.3h0.7l-0.5,0.3l0.1,1.2l0,0L79.9,92.3z M83,92.3h15.1l0.1,0.2L98,92.8l-0.3-0.1
	c0,0-0.3-0.1-0.6,0c-0.3,0.1-0.9,1.3-0.9,1.3l-0.6,0.4c0,0-0.6,0.8-1,1.1c-0.1,0.1-0.1,0.1-0.1,0.2c-1.9,1.1-3.9,2-5.7,2.8l-0.5-0.1
	l-0.5-2.3l-0.2-0.9c0,0-1.2-0.2-1.8-0.1c-0.6,0.1-2.7,1-2.7,1l0.1-0.5l0.1-1l-0.2-1.8L83,92.3z M111.2,56.7h-3.7
	c0-1.6-0.2-3.2-0.6-4.7c-0.2-0.8-0.5-1.6-0.8-2.4c1.3,1.1,2.4,2.3,3.6,3.7l0.3,1.3L111.2,56.7z M107.1,56.7h-1.7
	c-1.5-1.4-3.2-2.8-5-4.1c0.5-2,0.6-4.1,0.3-6.1c-0.1-0.3-0.1-0.6-0.2-0.9c1.7,1,3.3,2.1,4.8,3.3c0.5,1.1,0.9,2.1,1.2,3.2
	C107,53.7,107.1,55.2,107.1,56.7L107.1,56.7z M104.9,56.7H99c0.4-0.8,0.8-1.6,1.1-2.4c0.1-0.4,0.3-0.8,0.4-1.2
	C101.9,54.3,103.5,55.5,104.9,56.7L104.9,56.7z M98.5,56.7H92c-1.1-1-2.1-2-3.2-2.9c1.7-1.8,3-3.7,3.8-5.6c2.5,1.4,5,2.9,7.4,4.6
	c-0.1,0.4-0.3,0.9-0.4,1.4C99.3,55.1,98.9,55.9,98.5,56.7L98.5,56.7z M91.5,56.7h-1.8l-0.3-0.4c0,0-0.6-0.6-0.7-0.6
	s-0.8,0.1-0.8,0.1c-0.1,0-0.4-0.4-0.5-0.6c0.4-0.4,0.8-0.8,1.2-1.2C89.5,54.9,90.5,55.8,91.5,56.7L91.5,56.7z M76.4,56.7h-6L70,55.2
	l0.2-0.6l0.5-1l0.2-0.1L70.7,55l0.6-0.3l0.5,0.3l0.5-0.8l1.2,0.1l0.1-0.6l-1,0.1L72,53.4l-0.3-0.1c0.7-0.3,1.4-0.5,2.1-0.8l-0.1,0.2
	l0.8,0.4l0.7-0.7l0.8,0.2c0.3,0.4,0.5,0.7,0.8,1h-0.1l-0.4,0.5l-1.4,0.3l1.1,1.5L76.4,56.7z M69.9,56.7h-0.6l0.4-0.8L69.9,56.7z
	 M45.4,56.7h-1.6c-0.1-0.3-0.3-0.6-0.4-1c0.4-0.5,0.9-0.9,1.3-1.4c0.1,0.3,0.3,0.5,0.3,0.5l-0.5,1l0.6,0.4L45.4,56.7z M43.3,56.7
	h-0.8c0.2-0.2,0.3-0.4,0.5-0.6C43.2,56.4,43.2,56.6,43.3,56.7L43.3,56.7z M42,56.7h-3.5c0.1-0.5,0.2-1,0.4-1.5
	c0.1-0.1,0.1-0.3,0.1-0.4c1-1.3,2.4-2.6,3.9-3.8c-0.3,1.5-0.4,3.1,0.1,4.7C42.6,56,42.3,56.4,42,56.7L42,56.7z M38.1,56.7h-0.3
	c0.1-0.1,0.1-0.3,0.2-0.4c0.1-0.2,0.2-0.4,0.4-0.6C38.2,56.1,38.1,56.4,38.1,56.7L38.1,56.7z M99.2,107.9l0.5-0.8c0,0-2.4,0.9-3.6,1
	s-2.5-1.2-2.5-1.2l-1.1,0.1l-0.7-0.7l0.6-1.1l-0.6-0.6l0.2-1.2l0.8-0.7c0,0,1-1.6,1.2-2.5s-0.6-1.2-0.8-1.5
	c-0.1-0.2-1.1-0.6-1.1-0.6l-0.7,0.6l0.4,0.4l-0.3,0.5l-1.6,0.1l-1,0.2l-1.5-0.2l-1.1,0.2c-0.6,0.3-1.3,0.5-1.9,0.7
	c-0.8,0.3-1.5,0.5-2.3,0.7l3.5,13.2C90.8,113,95.3,110.8,99.2,107.9L99.2,107.9z M86.3,99.4V99l-1.7-0.9L83,98.3l-1.5-0.1l0,0
	l0.7,2.5c0.7-0.2,1.5-0.4,2.2-0.7C85,99.9,85.7,99.7,86.3,99.4L86.3,99.4z M44.5,54C44.5,53.9,44.5,53.9,44.5,54
	c0-0.2,0.2-0.2,0.4-0.4c0.8-0.8,1.6-1.6,2.4-2.3v-0.1l0.5-0.9l0.6-0.2l0.1,0.1c0.3-0.3,0.6-0.5,0.8-0.7c-0.1-0.2-0.1-0.4-0.2-0.6
	c-0.2-0.6-0.2-1.2-0.2-1.9l-0.6,1.4l-0.6,1.1l-1.2,0.6l0.6-1.6l-0.6-0.3l-1.3,1.5l-0.1-0.6c-0.6,0.5-1.3,0.9-1.9,1.4v0.1
	c-0.4,1.5-0.5,3.1-0.1,4.7C43.7,54.9,44.1,54.4,44.5,54L44.5,54z M46.6,52.5l0.7,0.2l0.6-0.8l-0.3-0.3C47.3,51.9,47,52.2,46.6,52.5
	L46.6,52.5z M48.7,50.8l0.1,0.4l0.3-0.8C49,50.5,48.8,50.6,48.7,50.8L48.7,50.8z M49.7,49.1l0.1-0.2l0.8-0.2c2-1.5,4.2-2.9,6.4-4.2
	c-0.1-0.2-0.1-0.3-0.2-0.5c-0.1-0.3-0.1-0.5-0.1-0.8c-2.4,0.9-4.9,2.1-7.1,3.3c-0.2,0.8-0.1,1.6,0.1,2.4
	C49.6,49,49.7,49.1,49.7,49.1L49.7,49.1z M51.5,48.6h0.9l1,1.5l0.5,0.2c1.5-1.6,2.9-3.1,4.4-4.4c-0.4-0.3-0.8-0.6-1.1-1.1
	C55.2,46,53.3,47.2,51.5,48.6L51.5,48.6z M54.2,50.5L54.2,50.5l0.8,1.1l1.7-0.4l1.1-0.1l0.3,0.3c0.1-0.2,0.3-0.4,0.4-0.7
	c0.1-0.2,0.3-0.5,0.4-0.7l0,0l0.1-0.1c0.2-0.3,0.4-0.7,0.6-1l0.1-0.7l0.4-0.1c0.2-0.4,0.4-0.7,0.7-1.1h-0.3l0.2-0.1
	c-0.1,0-0.1,0-0.2,0c-0.7-0.2-1.4-0.4-1.9-0.7C57.1,47.5,55.6,48.9,54.2,50.5L54.2,50.5z M58.3,51.7L58.3,51.7l1.7,0.7l0.7,0.3
	l-0.1,0.5l1.5,0.2l0.4-0.5l0.2,0.2c0.1-0.3,0.1-0.6,0.2-1l-1.3,0.5l-1.3-0.9l0.1-0.6l-0.3-1l-1,0.9L59,50.5l-0.2,0.4
	C58.6,51.1,58.5,51.4,58.3,51.7L58.3,51.7z M63.1,53.5L63.1,53.5l0.2-1l0.6,0.1c0,0,1.1,0.4,1.2,0.4c0.1-0.1,1.4-0.7,1.4-0.7
	l0.8,0.4l0.3-1.4l-0.9-0.2l-0.2-0.9l0.5-0.7l1,0.8l0.3,0.4l0.4,0.6L67.8,48l-0.3,0.7l-0.6,0.4l-0.4-0.9l0.4-0.3l0.8-0.2l-0.1-0.4
	h-0.1l-0.8-0.6c-0.2,0-0.5,0.1-0.7,0.1l0,0l-0.1,0.8l-0.6,0.1l-0.7-0.5l0.1-0.3h-0.2c-0.2,0.7-0.3,1.4-0.5,2.2l0.4-0.3l-0.1,1.3
	l1.2,1L64.6,52l-1.3,0C63.2,52.5,63.1,52.9,63.1,53.5L63.1,53.5z M68.8,51.1L68.8,51.1l0.7,0.2l0.2,0.8l0.5,0.2l0.4-1.5L70,49.9
	h-1.3l0.3-0.5l-0.7-0.1L68.8,51.1z M68.1,48.6v-0.2l0.7-0.9l0.5,0.2l1.1-0.8l1.1,0.4H72c-0.3-0.4-0.6-0.7-0.9-1.1
	c-0.2-0.3-0.4-0.5-0.7-0.8c-0.8,0.4-1.8,0.7-2.7,1v0.1l0.2,0.1l0.9-0.1l0.7-0.5l0.5,0.6l-2.1,0.7L68.1,48.6z M72.4,47.3h0.2
	c0,0,1.6,0.3,1.7,0.2s0.7,0.4,0.7,0.4v0.6l1.4-0.1l1.3,0.2l0.9,0.1v0.6c0.6-0.4,1.1-0.8,1.5-1.2c-2.1-1.3-4.1-2.4-5.9-3.4
	c-0.4-0.2-0.9-0.4-1.3-0.7l-1,0.5c-0.4,0.3-0.8,0.5-1.3,0.7c0.2,0.2,0.4,0.5,0.6,0.7C71.7,46.4,72.1,46.8,72.4,47.3L72.4,47.3z
	 M78.7,49.9v0.5l-0.5-0.1c-0.2,0.1-0.4,0.3-0.7,0.5l0.6,0.2l0.9,0.2l0.6,0.6l-1.3,0.1l1.2,0.5c0,0,0,0.4-0.1,0.4s-2.4,0-2.4,0h-0.2
	c0.3,0.4,0.6,0.7,0.8,1.1l0.5,0.2l0.8-0.3l1.2,1.7l1.5,0.1l0.1-0.4l-0.6-1.5l1.7,1l1.6,0.2L84,55.7h1.1l1.5-0.1
	c0.6-0.4,1.1-0.9,1.5-1.4c-1.7-1.5-3.4-2.8-5-3.8c-0.9-0.6-1.8-1.2-2.7-1.7C80,48.9,79.4,49.4,78.7,49.9L78.7,49.9z M77.7,50.1
	L77,49.8l0.1,0.6C77.3,50.3,77.5,50.2,77.7,50.1L77.7,50.1z M75.1,51.5l-0.4-0.4l0.1-0.4c-0.3-0.3-0.5-0.6-0.8-0.9l-2.3-0.9v0.7
	L71,50l0.7,1l0.6,0.8l-0.6,0.6L71.4,53C72.7,52.6,73.9,52.1,75.1,51.5L75.1,51.5z M74.9,50.3L74.9,50.3l-0.1-0.2L74.9,50.3z
	 M70.8,53.2L70.8,53.2L70.8,53.2L70.8,53.2z M89.4,98.6l0.3,0.1c0,0,1.6-0.9,2.3-1c0.7-0.1,1.8,0,1.8,0s0.6-0.6,0.8-1.1
	c0.1-0.2,0-0.4,0-0.6C92.8,97,91,97.9,89.4,98.6L89.4,98.6z M72.1,35.8l1.3-0.1l0.9-0.3l1.4,0.5c1-0.3,2-0.6,3.1-0.9
	c-0.5-0.2-1-0.3-1.5-0.4c-0.8-0.2-1.6-0.3-2.4-0.4c-1.2,0.5-2.4,1.2-3.5,1.9c0,0-0.1,0-0.1,0.1c0.1,0,0.2,0.1,0.3,0.1
	c0.6,0.1,1.1,0.3,1.5,0.5l0.1-0.1l-0.5-0.1l-1-0.4L72.1,35.8z M74.9,36.5l-0.7,0.4L74,36.8L73.6,37c0.4,0.3,0.9,0.6,1.2,1
	c2.3-0.4,4.9-0.8,7.6-0.9c-0.8-0.8-1.8-1.4-3-1.9C77.8,35.6,76.3,36.1,74.9,36.5L74.9,36.5z M72.5,38.2l-0.1,0.3
	c-1.9,0.4-3.5,0.9-4.7,1.2c1.4-0.8,3.1-1.7,5.4-2.5c0.5,0.3,0.9,0.5,1.2,0.9c-0.5,0.1-1,0.2-1.5,0.3L72.5,38.2z M72.3,38.9
	L72.3,38.9l-0.6,0.4l-1.1,0.1l-0.1,0.4c-1,0.1-1.8,0.1-2.7,0.3C68.9,39.7,70.5,39.3,72.3,38.9L72.3,38.9z M70.4,40.2l-0.1,0.5
	c-1-0.1-1.9-0.2-2.6-0.3C68.6,40.4,69.4,40.3,70.4,40.2L70.4,40.2z M70.3,41.2L70.3,41.2l-0.1,1c-0.3-0.1-0.6-0.3-0.9-0.4v-0.2
	l-0.9-0.2l0,0c-0.5-0.2-0.9-0.4-1.2-0.5C67.9,40.9,69,41,70.3,41.2L70.3,41.2z M70.5,42.8L69.9,44l1.3-0.1l0.2,0.5
	c-0.3,0.2-0.6,0.4-1,0.6c-0.4-0.5-0.8-0.9-1.2-1.4L69,43l0.2-0.4v-0.4C69.6,42.4,70.1,42.6,70.5,42.8L70.5,42.8z M76.3,45.4l0.8-0.5
	l1.3,0.2l-0.9,0.6l0.9,0.5l0.8-0.5l0.5,0.4l0,0.9l1,0.7l-0.2,0.1C79.1,47,77.7,46.1,76.3,45.4L76.3,45.4z M81.1,47.9L81.1,47.9h1.4
	l3,1.4l0.7-0.5c0,0,1-0.2,1-0.1c0,0.1,0.5-0.3,0.5-0.3s-2.1-1.4-2.1-1.5s-0.1-1-0.1-1l-1.3-0.3l-0.4-0.8l0.2-0.3
	c0.9,0.3,1.7,0.6,2.6,1c1.8,0.7,3.7,1.6,5.5,2.6c-0.7,1.9-2,3.8-3.7,5.5c-1.7-1.5-3.4-2.8-5-3.8c-0.9-0.6-1.7-1.2-2.6-1.7
	C81,48,81,48,81.1,47.9L81.1,47.9z M84.3,44.1L84,43.8c0.4-1.1,0.6-2.2,0.5-3.2c0.3,0.1,0.6,0.1,0.9,0.1l0.1,0.3l-0.2,0.9h0.9
	l1.6-0.1v-0.3l-0.3-0.4c1.7,0.3,3.5,0.7,5.2,1.3c0.1,0.6,0.2,1.2,0.2,1.9c0,1.1-0.2,2.2-0.6,3.4c-1.9-1-3.7-1.8-5.5-2.6
	C86,44.7,85.1,44.4,84.3,44.1L84.3,44.1z M83.7,43.5L83,42.8l-0.3-1.7l-0.9-0.8c0.8,0.1,1.5,0.2,2.3,0.3
	C84.3,41.5,84.1,42.5,83.7,43.5L83.7,43.5z M80.6,40.2l-1.2,0.2l-0.2-0.3C79.7,40.1,80.2,40.2,80.6,40.2L80.6,40.2z M78.9,39.7
	L78.9,39.7l-1.5-0.5l-1.1,0.4L76,38.9L75.3,39c-0.1-0.2-0.2-0.5-0.3-0.7c2.4-0.4,5-0.8,7.7-0.9c0.6,0.7,1,1.4,1.2,2.3
	C84,39.8,84,40,84,40.1C82.4,39.9,80.6,39.8,78.9,39.7L78.9,39.7z M74.9,39.1l-0.5,0.1l-1.1-0.6c0.4-0.1,0.8-0.2,1.3-0.3
	C74.8,38.6,74.9,38.9,74.9,39.1L74.9,39.1z M67.7,41.5c-0.1,0-0.2,0.1-0.3,0.2c-0.2-0.2-0.4-0.4-0.6-0.6
	C67,41.2,67.4,41.4,67.7,41.5L67.7,41.5z M67.2,42.1c-0.2,0.2-0.4,0.4-0.6,0.5l-0.4-1.5C66.5,41.4,66.8,41.7,67.2,42.1L67.2,42.1z
	 M66.2,42.9c-0.2,0.2-0.5,0.6-0.5,0.6l0.1,1l1.1,0.8l0.3,1H67L66.6,46L66,45l-1-0.5h-0.1c0.3-1.2,0.6-2.3,0.9-3.3L66.2,42.9z
	 M67.2,45l0.2-0.3l0.3,0.3l-0.3,0.5c0,0,0,0.1,0,0.2L67.2,45z M67.5,46.1L67.5,46.1L67.5,46.1L67.5,46.1z M69.1,45.6l0.5-0.8
	l-0.1-0.2c0.2,0.2,0.4,0.4,0.6,0.6C69.7,45.3,69.4,45.4,69.1,45.6L69.1,45.6z M66,48.1l0.4,1.3L65.7,50l-0.8-0.5v-1L66,48.1z
	 M63.3,49.6L63,49.9l-1.1-0.6L60.5,48c0.2-0.3,0.3-0.5,0.5-0.8l0.2,0.1l0.7-0.2l-0.2,0.8l1.4,0.4l0.8-0.5
	C63.6,48.4,63.4,49,63.3,49.6L63.3,49.6z M62.7,45.6l0.5-0.5l0.6,0.2l-0.3,0.8l-0.7,0.1L62.7,45.6z M62.7,47.3l0.3-0.2
	c-0.2,0-0.4,0-0.6,0L62.7,47.3z M63.3,46.7L63.3,46.7h0.2c0.1,0,0.3,0,0.4,0c0.1-0.5,0.3-1,0.4-1.5l-0.6-0.5l0.2-0.3l0.6,0.1
	c0.3-1.1,0.6-2.2,0.9-3.1c-1.2,1.4-2.4,3-3.7,4.9l0.2-0.1l0.6,0.2l-0.1,0.4C62.6,46.7,62.9,46.7,63.3,46.7L63.3,46.7z M65.4,46.5
	l-0.2-0.3l-0.6,0.3v0.1c-0.1,0-0.2,0-0.3,0c0.1-0.4,0.2-0.8,0.3-1.2l0.3,0.2l0.6-0.1l0.2,0.6l0.4,0.3C65.9,46.5,65.6,46.5,65.4,46.5
	L65.4,46.5z M109.4,52.4L109.4,52.4l-1.6-2l-1.5-2.6l-0.3,0.3l-0.7-0.4l-0.2-0.2c0.2,0.4,0.4,0.8,0.6,1.2
	C107,49.8,108.3,51,109.4,52.4L109.4,52.4z M104.1,46.7l-0.8-0.7l-1.1-0.5l-0.6-0.8l-0.3-1.5l-1.4-1.1l-1-0.1v0.1
	c0.6,1,1.1,2,1.5,3.1c1.6,0.8,3.1,1.8,4.5,3C104.7,47.6,104.4,47.2,104.1,46.7L104.1,46.7z M98.7,42.4l-0.1,0.2L98.2,42l-0.9-0.8
	l0.3,0.6l-0.1,0.4l-0.9-0.9l-0.4,0.1l0.7,1.1l-0.4,0.2l-0.8-0.5L95.2,42L94,41.3l-0.1-0.7c0,0-0.9-0.2-1.5-0.3
	c0.3,0.6,0.6,1.2,0.7,1.8c0.5,0.2,1.1,0.3,1.6,0.5c1.7,0.6,3.5,1.4,5.1,2.3C99.6,44,99.2,43.2,98.7,42.4L98.7,42.4z M91.9,40.1
	L91.9,40.1c-0.1,0-0.8-0.6-0.8-0.6l-0.5-0.8l0.4,0.1c-0.2-0.3-0.4-0.5-0.7-0.8c-0.1-0.1-0.1-0.1-0.2-0.2c-1.5-0.3-3.1-0.4-4.7-0.4
	c-0.7,0-1.4,0-2.1,0c0.5,0.6,0.9,1.4,1.1,2.2c0.1,0.2,0.1,0.4,0.1,0.5c0.3,0.1,0.5,0.1,0.8,0.1L85.2,40l0.8-0.3l1,0.5l0.2,0.3
	c1.8,0.3,3.6,0.8,5.4,1.3C92.5,41.3,92.2,40.7,91.9,40.1L91.9,40.1z M91.5,38.9l0.2-0.2l1.2,0.6l1.8-0.2l-0.4-0.3
	c-1.2-0.4-2.3-0.7-3.5-0.9C91,38.3,91.3,38.6,91.5,38.9L91.5,38.9z M93.3,38.2l-0.6-0.7l-1.5-0.1L90.5,37c0,0-1.2-0.5-1.3-0.5
	c0,0,0,0,0,0.1c0.4,0.3,0.7,0.6,1,0.8C91.3,37.7,92.3,37.9,93.3,38.2L93.3,38.2z M87.8,37.2l-1-0.6L85.2,36l-2.9-0.8L82,35.6
	L80.2,35h-0.1c1.2,0.5,2.1,1.2,2.8,2c0.8,0,1.6,0,2.5,0C86.2,37.1,87,37.1,87.8,37.2L87.8,37.2z M77.4,34.2l-0.2-0.7h-0.6
	c-0.3,0.1-0.7,0.2-1,0.4C76.2,33.9,76.8,34,77.4,34.2L77.4,34.2z M75.5,33.4h-0.6h-1.7l-0.5,0.2c0.7,0,1.4,0.1,2.1,0.1
	C75,33.6,75.3,33.5,75.5,33.4L75.5,33.4z M71,34l-1.1,0.3h-0.4c-0.5,0.5-0.9,1.1-1.3,1.7c0.9-0.1,1.7,0,2.5,0.1
	c0.1-0.1,0.3-0.2,0.4-0.3c0.9-0.6,1.9-1.2,2.9-1.7C73.1,34,72.1,34,71,34L71,34z M68.9,34.3h-1c-1.1,0.2-2.2,0.4-3.4,0.7l0.4,1.5
	c1-0.2,1.9-0.4,2.8-0.5l0,0C68.1,35.3,68.5,34.8,68.9,34.3L68.9,34.3z M69.4,33.7L69.4,33.7c0.1-0.1,0.2-0.1,0.2-0.2l-1.8,0.3
	L67.4,34C68.1,33.8,68.8,33.8,69.4,33.7L69.4,33.7z M63.4,35.3l-1.2,0.6h2.1l-0.8,0.5h-2.2l-1.1,0.2H60c0.3,0.1,0.6,0.3,1,0.5
	c0.3,0.1,0.6,0.3,0.8,0.5c0.8-0.4,1.7-0.7,2.7-1l-0.4-1.5C63.9,35.2,63.7,35.2,63.4,35.3L63.4,35.3z M55.6,38.4l-0.5,0.2L54.6,39
	h0.1C55,38.9,55.3,38.6,55.6,38.4L55.6,38.4z M56.2,39.4l-1.8,1.3l0.4-0.8L54.2,40c-0.3,0.2-0.6,0.5-0.8,0.7l-0.3,0.6l-0.4,0.1
	c-0.3,0.3-0.6,0.6-0.9,0.9c1.4-0.4,2.8-0.7,4.1-1c0.5-0.1,1.1-0.2,1.6-0.3c0.3-0.4,0.6-0.8,1.1-1.2c0.1-0.1,0.2-0.2,0.3-0.3
	c-0.1,0-0.1,0-0.1,0C57.8,39.4,56.9,39.4,56.2,39.4L56.2,39.4z M50.6,43L50,43.6l-0.6,1.5h0.2c0.3-0.8,0.7-1.5,1.2-2.3L50.6,43z
	 M49.9,45.2L49.9,45.2l-0.2,0.5c0,0.1-0.1,0.2-0.1,0.3c2.3-1.2,4.6-2.3,7.1-3.3c0.1-0.4,0.2-0.9,0.5-1.4c-0.4,0.1-0.8,0.1-1.2,0.2
	c-1.5,0.3-3.1,0.7-4.7,1.1C50.7,43.5,50.2,44.4,49.9,45.2L49.9,45.2z M44.7,49.1h-0.5l0.1-0.8c-0.3,0.5-0.5,1.1-0.7,1.6
	C43.9,49.7,44.3,49.4,44.7,49.1L44.7,49.1z M43.9,48.1l-1.1,1l-0.7,0.3c-0.5,0.6-1,1.3-1.4,2c-0.5,0.8-0.9,1.6-1.3,2.4
	c1-1.2,2.2-2.3,3.6-3.3C43.2,49.6,43.6,48.8,43.9,48.1L43.9,48.1z M81.8,101.3c-4.6,1.2-11.2,2.1-17.9,1.7
	c1.5,6.9,3.7,11.7,6.6,12.7c4.9,0.5,9.9,0.2,14.9-1.1L81.8,101.3z M63.5,102.9c-4.6-0.3-9.2-1.2-13.5-2.9c-0.4-0.2-0.8-0.3-1.3-0.5
	c1.2,5.7,3.9,10.1,8.3,12.3c3.9,1.9,8,3.1,12.3,3.7C66.8,113.7,64.9,109.1,63.5,102.9L63.5,102.9z M59.3,36.9
	c-1.4,0.6-2.7,1.4-3.8,2.1c1,0,2.1,0,3.3,0.1c0.2,0,0.4,0,0.6,0c0.6-0.5,1.3-0.9,2.1-1.3c-0.2-0.1-0.4-0.2-0.6-0.3
	C60.3,37.2,59.8,37,59.3,36.9L59.3,36.9z M71.5,36.6c-0.2-0.1-0.5-0.1-0.7-0.1c-1.5,1.1-2.8,2.2-3.8,3.2c1.4-0.8,3.2-1.7,5.6-2.7
	C72.3,36.8,71.9,36.7,71.5,36.6L71.5,36.6z M70.2,36.4c-0.7-0.1-1.5-0.1-2.3,0c-0.6,1-1.2,2.2-1.6,3.3
	C67.3,38.7,68.6,37.5,70.2,36.4L70.2,36.4z M67.4,36.4c-0.8,0.1-1.6,0.2-2.4,0.4l0.8,3C66.3,38.7,66.8,37.5,67.4,36.4L67.4,36.4z
	 M64.6,37c-0.8,0.2-1.6,0.5-2.4,0.8c1.1,0.6,2.2,1.4,3.2,2.2L64.6,37z M61.8,38c-0.7,0.3-1.4,0.7-1.9,1.1c1.7,0.2,3.4,0.4,4.8,0.8
	C63.8,39.3,62.8,38.6,61.8,38L61.8,38z M59.4,39.5c-0.2,0.2-0.4,0.3-0.6,0.5c-0.3,0.3-0.5,0.5-0.8,0.8c2.3-0.3,4.5-0.5,6.2-0.5
	C62.9,39.9,61.1,39.6,59.4,39.5L59.4,39.5z M57.8,41.3c-0.3,0.4-0.5,0.9-0.6,1.3c2.2-0.8,4.4-1.4,6.6-1.9
	C62.1,40.7,60,40.9,57.8,41.3L57.8,41.3z M57.1,43c0,0.3,0,0.6,0.1,0.8c0.1,0.1,0.1,0.3,0.2,0.4c2.2-1.2,4.4-2.3,6.6-3.2
	C61.7,41.5,59.4,42.2,57.1,43L57.1,43z M57.5,44.7c0.2,0.4,0.6,0.7,1,1c1.1-1,2.3-1.9,3.4-2.8c0.6-0.5,1.2-0.9,1.8-1.3
	C61.6,42.5,59.6,43.5,57.5,44.7L57.5,44.7z M58.9,45.8c0.5,0.3,1,0.5,1.7,0.6c0.1,0,0.2,0.1,0.4,0.1c1.3-1.9,2.6-3.7,3.8-5.1
	c-0.9,0.6-1.7,1.2-2.6,1.8C61.1,44,60,44.9,58.9,45.8L58.9,45.8z M92.8,47.9c2.5,1.4,5,2.9,7.4,4.6c0.5-1.9,0.6-3.9,0.2-5.8
	c-0.1-0.4-0.2-0.8-0.3-1.3c-1.8-1-3.6-1.7-5.5-2.4c-0.5-0.2-0.9-0.3-1.4-0.5c0.1,0.6,0.2,1.2,0.2,1.7C93.4,45.4,93.2,46.6,92.8,47.9
	L92.8,47.9z"/>
<linearGradient id="SVGID_2_" gradientUnits="userSpaceOnUse" x1="1" y1="109.7597" x2="148.7" y2="109.7597" gradientTransform="matrix(1 0 0 -1 0 152)">
	<stop  offset="0" style="stop-color:#1A1A1A"/>
	<stop  offset="1.768262e-02" style="stop-color:#2D2D2D"/>
	<stop  offset="4.648486e-02" style="stop-color:#464646"/>
	<stop  offset="7.659029e-02" style="stop-color:#585858"/>
	<stop  offset="0.1085" style="stop-color:#636363"/>
	<stop  offset="0.1455" style="stop-color:#666666"/>
	<stop  offset="0.297" style="stop-color:#666666"/>
	<stop  offset="0.4909" style="stop-color:#808080"/>
	<stop  offset="0.7818" style="stop-color:#B3B3B3"/>
	<stop  offset="1" style="stop-color:#333333"/>
</linearGradient>
<path class="st1" d="M51.3,33.7c22.5-13,51.4-5.3,64.4,17.2c0.5,0.9,1,1.9,1.5,2.8l31.5,3.4h-30H115c-0.7-1.5-1.4-3-2.3-4.5
	c-12.1-20.9-38.8-28.1-59.7-16c-8.5,4.9-14.7,12.2-18.3,20.5h-3.6H1l31.5-3.4C36.6,45.6,42.9,38.6,51.3,33.7L51.3,33.7z"/>
<linearGradient id="SVGID_3_" gradientUnits="userSpaceOnUse" x1="12.7" y1="112.7" x2="137.1" y2="112.7" gradientTransform="matrix(1 0 0 -1 0 152)">
	<stop  offset="0" style="stop-color:#F4E59A"/>
	<stop  offset="9.090900e-02" style="stop-color:#FEFDDA"/>
	<stop  offset="0.2303" style="stop-color:#FFD26D"/>
	<stop  offset="0.3636" style="stop-color:#BA9A61"/>
	<stop  offset="0.503" style="stop-color:#FEEEB4"/>
	<stop  offset="0.6242" style="stop-color:#E4B54A"/>
	<stop  offset="0.7426" style="stop-color:#91682F"/>
	<stop  offset="0.8303" style="stop-color:#91682F"/>
	<stop  offset="1" style="stop-color:#FDD675"/>
</linearGradient>
<path class="st2" d="M137.1,54.6l-18.8-2.4c-0.4-0.7-0.7-1.4-1.1-2c-9-15.6-25.4-24.4-42.3-24.4s-33.3,8.8-42.3,24.4
	c-0.4,0.6-0.7,1.3-1.1,2l-18.8,2.4l17.8-4.2c0.2-0.4,0.4-0.8,0.6-1.2C40.5,33.1,57.5,24,74.9,24s34.4,9.1,43.7,25.2
	c0.2,0.4,0.4,0.8,0.6,1.2L137.1,54.6z"/>
<linearGradient id="SVGID_4_" gradientUnits="userSpaceOnUse" x1="1" y1="45.2903" x2="148.6" y2="45.2903" gradientTransform="matrix(1 0 0 -1 0 152)">
	<stop  offset="0" style="stop-color:#1A1A1A"/>
	<stop  offset="1.768262e-02" style="stop-color:#2D2D2D"/>
	<stop  offset="4.648486e-02" style="stop-color:#464646"/>
	<stop  offset="7.659029e-02" style="stop-color:#585858"/>
	<stop  offset="0.1085" style="stop-color:#636363"/>
	<stop  offset="0.1455" style="stop-color:#666666"/>
	<stop  offset="0.297" style="stop-color:#666666"/>
	<stop  offset="0.4909" style="stop-color:#808080"/>
	<stop  offset="0.7818" style="stop-color:#B3B3B3"/>
	<stop  offset="1" style="stop-color:#333333"/>
</linearGradient>
<path class="st3" d="M1,91.9l31.5,3.4c0.4,1,1,1.9,1.5,2.8c13,22.5,41.9,30.2,64.4,17.2c8.4-4.9,14.8-12,18.7-20.1l31.5-3.4h-30H115
	c-3.6,8.3-9.8,15.6-18.3,20.5c-20.9,12.1-47.7,4.9-59.7-16c-0.8-1.5-1.6-3-2.3-4.5H31L1,91.9L1,91.9z"/>
<linearGradient id="SVGID_5_" gradientUnits="userSpaceOnUse" x1="12.7" y1="42.25" x2="137.1" y2="42.25" gradientTransform="matrix(1 0 0 -1 0 152)">
	<stop  offset="0" style="stop-color:#F4E59A"/>
	<stop  offset="9.090900e-02" style="stop-color:#FEFDDA"/>
	<stop  offset="0.2303" style="stop-color:#FFD26D"/>
	<stop  offset="0.3636" style="stop-color:#BA9A61"/>
	<stop  offset="0.503" style="stop-color:#FEEEB4"/>
	<stop  offset="0.6242" style="stop-color:#E4B54A"/>
	<stop  offset="0.7426" style="stop-color:#91682F"/>
	<stop  offset="0.8303" style="stop-color:#91682F"/>
	<stop  offset="1" style="stop-color:#FDD675"/>
</linearGradient>
<path class="st4" d="M137.1,94.5l-18.8,2.4c-0.3,0.7-0.7,1.3-1.1,2c-9,15.6-25.4,24.4-42.3,24.4s-33.3-8.8-42.3-24.4
	c-0.4-0.7-0.8-1.3-1.1-2l-18.8-2.4l17.8,4.1c0.2,0.4,0.4,0.8,0.6,1.2c9.3,16.1,26.3,25.2,43.7,25.2s34.4-9.1,43.7-25.2
	c0.2-0.4,0.4-0.8,0.6-1.2L137.1,94.5z"/>
<g>
	<linearGradient id="SVGID_6_" gradientUnits="userSpaceOnUse" x1="11.063" y1="69.4587" x2="111.9275" y2="91.2937">
		<stop  offset="0" style="stop-color:#F4E59A"/>
		<stop  offset="9.090900e-02" style="stop-color:#FEFDDA"/>
		<stop  offset="0.2303" style="stop-color:#FFD26D"/>
		<stop  offset="0.3636" style="stop-color:#BA9A61"/>
		<stop  offset="0.503" style="stop-color:#FEEEB4"/>
		<stop  offset="0.6242" style="stop-color:#E4B54A"/>
		<stop  offset="0.7426" style="stop-color:#91682F"/>
		<stop  offset="0.8303" style="stop-color:#91682F"/>
		<stop  offset="1" style="stop-color:#FDD675"/>
	</linearGradient>
	<path class="st5" d="M33,68.4h2.8v9.9H42v2.3h-9V68.4z"/>
	<linearGradient id="SVGID_7_" gradientUnits="userSpaceOnUse" x1="11.7284" y1="66.3848" x2="112.5929" y2="88.2197">
		<stop  offset="0" style="stop-color:#F4E59A"/>
		<stop  offset="9.090900e-02" style="stop-color:#FEFDDA"/>
		<stop  offset="0.2303" style="stop-color:#FFD26D"/>
		<stop  offset="0.3636" style="stop-color:#BA9A61"/>
		<stop  offset="0.503" style="stop-color:#FEEEB4"/>
		<stop  offset="0.6242" style="stop-color:#E4B54A"/>
		<stop  offset="0.7426" style="stop-color:#91682F"/>
		<stop  offset="0.8303" style="stop-color:#91682F"/>
		<stop  offset="1" style="stop-color:#FDD675"/>
	</linearGradient>
	<path class="st6" d="M45.9,80c-1-0.5-1.8-1.3-2.4-2.3c-0.6-1-0.9-2-0.9-3.2c0-1.2,0.3-2.3,0.9-3.2c0.6-1,1.4-1.7,2.4-2.3
		c1-0.5,2.2-0.8,3.4-0.8c1.3,0,2.4,0.3,3.4,0.8c1,0.5,1.8,1.3,2.4,2.3c0.6,1,0.9,2,0.9,3.2c0,1.2-0.3,2.3-0.9,3.2
		c-0.6,1-1.4,1.7-2.4,2.3c-1,0.5-2.2,0.8-3.4,0.8C48,80.9,46.9,80.6,45.9,80z M51.3,77.9c0.6-0.3,1-0.8,1.4-1.4
		c0.3-0.6,0.5-1.3,0.5-2c0-0.8-0.2-1.4-0.5-2c-0.3-0.6-0.8-1.1-1.4-1.4c-0.6-0.3-1.2-0.5-2-0.5c-0.7,0-1.4,0.2-2,0.5
		c-0.6,0.3-1,0.8-1.4,1.4c-0.3,0.6-0.5,1.3-0.5,2c0,0.8,0.2,1.4,0.5,2c0.3,0.6,0.8,1.1,1.4,1.4c0.6,0.3,1.2,0.5,2,0.5
		C50,78.4,50.7,78.3,51.3,77.9z"/>
	<linearGradient id="SVGID_8_" gradientUnits="userSpaceOnUse" x1="12.2288" y1="64.0736" x2="113.0933" y2="85.9085">
		<stop  offset="0" style="stop-color:#F4E59A"/>
		<stop  offset="9.090900e-02" style="stop-color:#FEFDDA"/>
		<stop  offset="0.2303" style="stop-color:#FFD26D"/>
		<stop  offset="0.3636" style="stop-color:#BA9A61"/>
		<stop  offset="0.503" style="stop-color:#FEEEB4"/>
		<stop  offset="0.6242" style="stop-color:#E4B54A"/>
		<stop  offset="0.7426" style="stop-color:#91682F"/>
		<stop  offset="0.8303" style="stop-color:#91682F"/>
		<stop  offset="1" style="stop-color:#FDD675"/>
	</linearGradient>
	<path class="st7" d="M66,78h-5.7l-1.1,2.6h-2.9l5.5-12.2h2.8l5.5,12.2h-3L66,78z M65.1,75.9l-1.9-4.7l-1.9,4.7H65.1z"/>
	<linearGradient id="SVGID_9_" gradientUnits="userSpaceOnUse" x1="12.8626" y1="61.1456" x2="113.7271" y2="82.9806">
		<stop  offset="0" style="stop-color:#F4E59A"/>
		<stop  offset="9.090900e-02" style="stop-color:#FEFDDA"/>
		<stop  offset="0.2303" style="stop-color:#FFD26D"/>
		<stop  offset="0.3636" style="stop-color:#BA9A61"/>
		<stop  offset="0.503" style="stop-color:#FEEEB4"/>
		<stop  offset="0.6242" style="stop-color:#E4B54A"/>
		<stop  offset="0.7426" style="stop-color:#91682F"/>
		<stop  offset="0.8303" style="stop-color:#91682F"/>
		<stop  offset="1" style="stop-color:#FDD675"/>
	</linearGradient>
	<path class="st8" d="M71.4,68.4h5.6c1.3,0,2.5,0.3,3.5,0.8c1,0.5,1.8,1.2,2.4,2.1c0.6,0.9,0.8,2,0.8,3.2c0,1.2-0.3,2.3-0.8,3.2
		c-0.6,0.9-1.4,1.6-2.4,2.1c-1,0.5-2.2,0.8-3.5,0.8h-5.6V68.4z M76.8,78.3c1.2,0,2.2-0.3,2.9-1c0.7-0.7,1.1-1.6,1.1-2.8
		c0-1.2-0.4-2.1-1.1-2.8c-0.7-0.7-1.7-1-2.9-1h-2.6v7.6H76.8z"/>
	<linearGradient id="SVGID_10_" gradientUnits="userSpaceOnUse" x1="13.4259" y1="58.5437" x2="114.2904" y2="80.3786">
		<stop  offset="0" style="stop-color:#F4E59A"/>
		<stop  offset="9.090900e-02" style="stop-color:#FEFDDA"/>
		<stop  offset="0.2303" style="stop-color:#FFD26D"/>
		<stop  offset="0.3636" style="stop-color:#BA9A61"/>
		<stop  offset="0.503" style="stop-color:#FEEEB4"/>
		<stop  offset="0.6242" style="stop-color:#E4B54A"/>
		<stop  offset="0.7426" style="stop-color:#91682F"/>
		<stop  offset="0.8303" style="stop-color:#91682F"/>
		<stop  offset="1" style="stop-color:#FDD675"/>
	</linearGradient>
	<path class="st9" d="M85.8,68.4h2.8v12.2h-2.8V68.4z"/>
	<linearGradient id="SVGID_11_" gradientUnits="userSpaceOnUse" x1="13.8705" y1="56.4896" x2="114.735" y2="78.3245">
		<stop  offset="0" style="stop-color:#F4E59A"/>
		<stop  offset="9.090900e-02" style="stop-color:#FEFDDA"/>
		<stop  offset="0.2303" style="stop-color:#FFD26D"/>
		<stop  offset="0.3636" style="stop-color:#BA9A61"/>
		<stop  offset="0.503" style="stop-color:#FEEEB4"/>
		<stop  offset="0.6242" style="stop-color:#E4B54A"/>
		<stop  offset="0.7426" style="stop-color:#91682F"/>
		<stop  offset="0.8303" style="stop-color:#91682F"/>
		<stop  offset="1" style="stop-color:#FDD675"/>
	</linearGradient>
	<path class="st10" d="M102.8,68.4v12.2h-2.3l-6.1-7.4v7.4h-2.8V68.4h2.3l6.1,7.4v-7.4H102.8z"/>
	<linearGradient id="SVGID_12_" gradientUnits="userSpaceOnUse" x1="14.5187" y1="53.4955" x2="115.3832" y2="75.3305">
		<stop  offset="0" style="stop-color:#F4E59A"/>
		<stop  offset="9.090900e-02" style="stop-color:#FEFDDA"/>
		<stop  offset="0.2303" style="stop-color:#FFD26D"/>
		<stop  offset="0.3636" style="stop-color:#BA9A61"/>
		<stop  offset="0.503" style="stop-color:#FEEEB4"/>
		<stop  offset="0.6242" style="stop-color:#E4B54A"/>
		<stop  offset="0.7426" style="stop-color:#91682F"/>
		<stop  offset="0.8303" style="stop-color:#91682F"/>
		<stop  offset="1" style="stop-color:#FDD675"/>
	</linearGradient>
	<path class="st11" d="M114,74.3h2.6v5c-0.7,0.5-1.4,0.9-2.3,1.2c-0.9,0.3-1.8,0.4-2.6,0.4c-1.3,0-2.4-0.3-3.4-0.8s-1.8-1.3-2.4-2.3
		c-0.6-1-0.9-2-0.9-3.3c0-1.2,0.3-2.3,0.9-3.3c0.6-1,1.4-1.7,2.4-2.3c1-0.5,2.2-0.8,3.5-0.8c1.1,0,2,0.2,2.9,0.5
		c0.9,0.4,1.6,0.9,2.2,1.6L115,72c-0.9-0.9-1.9-1.4-3.2-1.4c-0.8,0-1.5,0.2-2.1,0.5c-0.6,0.3-1.1,0.8-1.4,1.4
		c-0.3,0.6-0.5,1.3-0.5,2c0,0.8,0.2,1.4,0.5,2c0.3,0.6,0.8,1.1,1.4,1.4s1.3,0.5,2.1,0.5c0.8,0,1.5-0.2,2.2-0.5V74.3z"/>
</g>
</svg>
