<?xml version="1.0" encoding="iso-8859-1"?>
<!-- Generator: Adobe Illustrator 19.0.0, SVG Export Plug-In . SVG Version: 6.00 Build 0)  -->
<svg version="1.1" id="Capa_1" xmlns="http://www.w3.org/2000/svg" xmlns:xlink="http://www.w3.org/1999/xlink" x="0px" y="0px"
	 viewBox="0 0 512.001 512.001" style="enable-background:new 0 0 512.001 512.001;" xml:space="preserve">
<g>
	<path style="fill:#C49A6C;" d="M201.048,118.03c36.342,6.57,73.563,6.57,109.906,0l0.853-0.171l38.057-6.912l46.932-93.864H115.205
		l46.932,93.864l38.057,6.912L201.048,118.03z M324.683,67.924l-23.321,46.625L324.683,67.924z M219.163,114.549L196.03,68.282
		L219.163,114.549z"/>
	<path style="fill:#C49A6C;" d="M59.74,349.873c0,94.29,101.97,153.595,196.26,153.595s196.26-59.305,196.26-153.595
		c0-61.097-52.734-156.837-103.421-204.623l-37.887,6.912c-18.022,3.251-36.3,4.898-54.612,4.915L256,187.745l0.367-30.668
		c-18.551,0.026-37.068-1.613-55.32-4.915l-37.887-6.912C112.475,193.035,59.74,288.776,59.74,349.873z M144.217,435.494
		c3.021,2.099,6.152,4.113,9.386,6.041C150.395,439.589,147.264,437.576,144.217,435.494z M256,469.336
		c-26.324-0.094-52.393-5.214-76.797-15.078C203.608,464.122,229.676,469.242,256,469.336c39.679,0.034,78.47-11.682,111.501-33.671
		C334.479,457.654,295.679,469.37,256,469.336z M343.183,196.585c-11.008-15.359-23.398-29.686-37.008-42.802
		C319.785,166.899,332.175,181.226,343.183,196.585z M205.826,153.783c-8.047,7.731-15.462,16.076-22.186,24.976
		C190.364,169.86,197.788,161.514,205.826,153.783z M256,221.877c56.548,0,102.397,45.848,102.397,102.397
		S312.549,426.67,256,426.67s-102.397-45.848-102.397-102.397S199.452,221.877,256,221.877z"/>
	<path style="fill:#C49A6C;" d="M256.367,157.077L256.367,157.077c18.312-0.017,36.59-1.664,54.612-4.915l37.887-6.912l0.998-0.171
		v-34.132l-38.057,6.912l-0.853,0.171c-36.342,6.57-73.563,6.57-109.906,0l-0.853-0.171l-38.057-6.912v34.132l1.024,0.171
		l37.887,6.912C219.3,155.464,237.817,157.111,256.367,157.077z"/>
</g>
<g>
	<path style="fill:#FFAF46;" d="M256,426.67c56.548,0,102.397-45.848,102.397-102.397S312.549,221.877,256,221.877
		s-102.397,45.848-102.397,102.397S199.452,426.67,256,426.67z M204.802,273.075h34.132l0,0h25.599l0,0H281.6
		c9.429,0,17.066,7.637,17.066,17.066v17.066c0,9.429-7.637,17.066-17.066,17.066c9.429,0,17.066,7.637,17.066,17.066v17.066
		c0,9.429-7.637,17.066-17.066,17.066h-17.066l0,0h-25.599l0,0h-8.533V273.075H204.802z"/>
	<path style="fill:#FFAF46;" d="M281.6,324.274c9.429,0,17.066-7.637,17.066-17.066v-17.066c0-9.429-7.637-17.066-17.066-17.066
		h-51.198v51.198H281.6z"/>
	<path style="fill:#FFAF46;" d="M230.401,375.472H281.6c9.429,0,17.066-7.637,17.066-17.066V341.34
		c0-9.429-7.637-17.066-17.066-17.066h-51.198V375.472z"/>
</g>
<g>
	<path style="fill:#231F20;" d="M358.397,142.742v-29.78l50.345-100.596c0-0.085,0-0.171,0.068-0.256
		c0.196-0.521,0.341-1.067,0.435-1.621c0.171-0.555,0.29-1.126,0.341-1.707c0-0.094,0.051-0.162,0.051-0.256
		c-0.051-0.401-0.128-0.794-0.239-1.186c-0.06-0.614-0.179-1.22-0.367-1.809c-0.213-0.486-0.478-0.956-0.785-1.391
		c-0.256-0.486-0.572-0.947-0.922-1.374c-0.435-0.418-0.905-0.785-1.417-1.101c-0.307-0.282-0.64-0.546-0.99-0.777
		c-0.085,0-0.171,0-0.256-0.068c-0.521-0.196-1.058-0.341-1.604-0.435c-0.555-0.171-1.126-0.29-1.707-0.341
		c-0.128,0.026-0.205-0.026-0.29-0.026c-13.883-0.29-27.613,2.944-39.909,9.386c-10.018,5.359-21.264,8.013-32.622,7.68
		c-11.366,0.333-22.621-2.312-32.647-7.68C283.596,2.962,269.875-0.264,256,0.018c-13.875-0.29-27.596,2.944-39.892,9.386
		c-10.018,5.367-21.273,8.021-32.639,7.68c-11.357,0.333-22.613-2.312-32.63-7.68c-12.296-6.442-26.017-9.676-39.901-9.386
		c-0.085,0-0.162,0.051-0.247,0.051c-0.58,0.051-1.152,0.171-1.707,0.341c-0.546,0.094-1.084,0.239-1.604,0.435
		c-0.085,0-0.171,0-0.256,0.068c-0.35,0.23-0.683,0.495-0.99,0.777c-0.512,0.316-0.981,0.683-1.416,1.101
		c-0.35,0.427-0.666,0.887-0.922,1.374c-0.307,0.435-0.572,0.905-0.785,1.391c-0.188,0.589-0.307,1.195-0.367,1.809
		c-0.111,0.393-0.188,0.785-0.239,1.186c0,0.094,0.051,0.162,0.051,0.256c0.051,0.58,0.171,1.152,0.341,1.707
		c0.094,0.555,0.239,1.101,0.435,1.621c0.043,0.085,0,0.171,0.068,0.256l50.302,100.571v29.78
		C104.411,191.278,51.207,286.174,51.207,349.873c0,100.144,106.305,162.128,204.793,162.128s204.793-61.984,204.793-162.128
		C460.794,286.174,407.59,191.278,358.397,142.742z M170.67,121.187l27.852,5.06l1.007,0.196c4.685,0.845,9.369,1.579,14.062,2.219
		c1.067,0.145,2.125,0.23,3.191,0.358c13.004,1.638,26.103,2.475,39.218,2.483c19.003-0.017,37.972-1.732,56.668-5.12l28.663-5.197
		v16.776l-31.897,5.82c-17.459,3.157-35.165,4.761-52.905,4.796h-0.085c-0.06,0-0.102,0-0.162,0
		c-18.03,0.017-36.018-1.587-53.758-4.804l-31.854-5.828L170.67,121.187L170.67,121.187z M183.47,34.15
		c13.866,0.299,27.587-2.91,39.883-9.344c10.018-5.384,21.273-8.047,32.647-7.722c11.366-0.316,22.621,2.347,32.639,7.722
		c12.296,6.425,26.017,9.642,39.892,9.344c13.875,0.299,27.604-2.918,39.909-9.344c5.751-2.978,11.878-5.162,18.218-6.485
		l-42.503,84.989l-30.369,5.521l18.542-37.093c2.108-4.215,0.401-9.344-3.814-11.451c-4.215-2.108-9.344-0.401-11.451,3.814
		l-23.312,46.633c-0.154,0.427-0.273,0.87-0.358,1.314c-21.887,2.756-44.005,3.089-65.96,0.99c-0.094-0.794-0.299-1.57-0.623-2.304
		l-23.125-46.266c-2.074-4.232-7.185-5.982-11.417-3.908s-5.982,7.185-3.908,11.417c0.017,0.043,0.043,0.077,0.06,0.119
		l19.157,38.33c-1.613-0.265-3.225-0.469-4.838-0.759l-34.858-6.357l-42.495-84.989c6.332,1.323,12.458,3.507,18.201,6.485
		C155.882,31.232,169.603,34.449,183.47,34.15z M256,494.935c-115.956,0-187.727-75.296-187.727-145.062
		c0-57.922,50.908-149.508,97.644-195.407l23.304,4.267c-4.062,4.548-8.166,9.506-12.322,14.873
		c-2.876,3.737-2.167,9.096,1.57,11.972c3.737,2.876,9.096,2.167,11.972-1.57c5.854-7.722,12.228-15.027,19.088-21.862
		c12.655,1.877,25.42,2.987,38.211,3.319l-0.265,22.177c-0.06,4.71,3.72,8.576,8.431,8.635l0,0h0.102
		c4.676,0,8.473-3.755,8.533-8.431l0.265-22.408c12.612-0.341,25.19-1.442,37.673-3.294c12.373,12.168,23.688,25.377,33.816,39.474
		c2.662,3.883,7.978,4.872,11.861,2.21c3.883-2.662,4.872-7.978,2.21-11.861c-0.094-0.137-0.188-0.265-0.282-0.393
		c-8.337-11.528-17.39-22.527-27.092-32.929l23.09-4.207c46.736,45.908,97.652,137.51,97.652,195.432
		C443.727,419.639,371.956,494.935,256,494.935z"/>
	<path style="fill:#231F20;" d="M157.99,434.214c-3.046-1.826-5.999-3.737-8.874-5.734c-3.874-2.688-9.19-1.732-11.878,2.142
		c-2.688,3.874-1.732,9.19,2.142,11.878c3.183,2.21,6.46,4.326,9.83,6.349c4.045,2.423,9.284,1.118,11.707-2.927
		C163.34,441.876,162.035,436.637,157.99,434.214z"/>
	<path style="fill:#231F20;" d="M362.664,428.65c-31.572,21.06-68.708,32.255-106.663,32.153
		c-25.232-0.077-50.217-4.983-73.598-14.455c-4.395-1.707-9.335,0.469-11.042,4.864c-1.672,4.301,0.375,9.147,4.625,10.948
		c25.42,10.299,52.581,15.633,80.014,15.709c41.419,0.077,81.934-12.177,116.365-35.199c3.755-2.85,4.488-8.2,1.638-11.955
		C371.325,427.191,366.41,426.295,362.664,428.65z"/>
	<path style="fill:#231F20;" d="M256,435.203c61.267,0,110.93-49.662,110.93-110.93S317.268,213.344,256,213.344
		s-110.93,49.662-110.93,110.93C145.139,385.507,194.767,435.135,256,435.203z M256,230.41c51.838,0,93.864,42.025,93.864,93.864
		S307.839,418.137,256,418.137s-93.864-42.025-93.864-93.864C162.197,272.461,204.188,230.47,256,230.41z"/>
	<path style="fill:#231F20;" d="M230.401,384.005v17.066h17.066v-17.066H256v17.066h17.066v-17.066h8.533
		c14.139,0,25.599-11.46,25.599-25.599V341.34c-0.026-6.314-2.398-12.399-6.656-17.066c4.258-4.668,6.63-10.752,6.656-17.066
		v-17.066c0-14.139-11.46-25.599-25.599-25.599h-8.533v-17.066H256v17.066h-8.533v-17.066h-17.066v17.066h-25.599v17.066h17.066
		v85.331h-17.066v17.066H230.401z M238.934,281.609H281.6c4.71,0,8.533,3.823,8.533,8.533v17.066c0,4.71-3.823,8.533-8.533,8.533
		h-42.665V281.609z M281.6,332.807c4.71,0,8.533,3.823,8.533,8.533v17.066c0,4.71-3.823,8.533-8.533,8.533h-42.665v-34.132H281.6z"
		/>
</g>
<g>
</g>
<g>
</g>
<g>
</g>
<g>
</g>
<g>
</g>
<g>
</g>
<g>
</g>
<g>
</g>
<g>
</g>
<g>
</g>
<g>
</g>
<g>
</g>
<g>
</g>
<g>
</g>
<g>
</g>
</svg>
