<?xml version="1.0" standalone="no"?>
<!DOCTYPE svg PUBLIC "-//W3C//DTD SVG 20010904//EN"
 "http://www.w3.org/TR/2001/REC-SVG-20010904/DTD/svg10.dtd">
<svg version="1.0" xmlns="http://www.w3.org/2000/svg"
 width="1052.000000pt" height="1052.000000pt" viewBox="0 0 1052.000000 1052.000000"
 preserveAspectRatio="xMidYMid meet">
<metadata>
Created by potrace 1.14, written by Peter Selinger 2001-2017
</metadata>
<g transform="translate(0.000000,1052.000000) scale(0.100000,-0.100000)"
fill="#000000" stroke="none">
<path d="M0 5260 l0 -4760 501 0 c396 0 500 3 496 13 -2 6 0 20 5 30 5 10 5
24 -2 36 -7 14 -7 22 0 26 8 5 8 11 0 20 -8 10 -8 19 0 34 7 15 8 27 0 40 -7
14 -7 22 0 26 8 5 8 11 0 20 -8 10 -8 19 0 34 7 15 8 27 0 40 -7 14 -7 22 0
26 8 5 8 11 0 20 -8 10 -8 19 0 34 7 13 7 27 2 37 -5 9 -6 33 -2 54 4 21 4 44
0 51 -4 6 -4 24 0 39 4 15 4 33 0 40 -4 6 -4 27 0 46 4 19 4 36 0 39 -8 5 -5
48 5 64 3 6 1 19 -5 30 -7 14 -7 22 0 26 8 5 8 11 0 20 -8 10 -8 19 0 34 7 15
8 27 0 40 -7 14 -7 22 0 26 8 5 8 11 0 20 -8 10 -8 19 0 34 7 15 8 27 0 40 -7
14 -7 22 0 26 8 5 8 11 0 20 -8 10 -8 19 0 34 7 15 8 27 0 40 -7 14 -7 22 0
26 8 5 8 11 0 20 -8 10 -8 19 0 34 7 15 8 27 0 40 -7 14 -7 22 0 26 8 5 8 11
0 20 -8 10 -8 19 0 34 7 13 7 27 2 37 -5 9 -6 33 -2 54 4 21 4 44 0 51 -4 6
-4 24 0 39 4 15 4 33 0 40 -4 6 -4 27 0 46 4 19 4 36 -1 39 -4 3 -4 17 1 30 6
16 6 25 0 25 -6 0 -6 9 -1 23 5 12 5 31 1 42 -4 11 -3 25 2 32 5 7 5 14 -1 17
-6 4 -6 18 -1 35 4 15 4 34 0 41 -5 7 -4 24 1 37 6 17 6 22 -2 17 -8 -4 -8 0
-2 12 10 23 10 55 0 71 -5 7 -3 22 3 33 7 14 8 26 0 39 -7 14 -7 22 0 26 8 5
8 11 0 20 -8 10 -8 19 0 34 7 15 8 27 0 40 -7 14 -7 22 0 26 8 5 8 11 0 20 -7
9 -8 21 -3 32 10 20 9 70 0 79 -4 4 -2 15 4 25 6 13 6 19 0 19 -7 0 -7 8 -2
23 5 12 5 31 1 42 -4 11 -3 25 2 32 5 7 5 14 -1 17 -6 4 -6 18 -1 36 5 16 5
32 0 35 -4 3 -4 20 0 39 4 19 4 40 -1 47 -4 7 -3 21 2 31 6 12 6 18 0 18 -6 0
-7 9 -3 23 9 27 9 48 -1 64 -4 7 -3 22 3 33 7 13 7 26 1 38 -7 13 -7 22 0 29
8 8 8 13 0 17 -6 4 -7 15 -1 30 4 12 4 29 0 36 -5 8 -4 22 1 32 6 12 6 18 0
18 -7 0 -7 8 -2 23 5 12 5 31 1 42 -4 11 -3 25 2 32 5 7 5 14 -1 17 -6 4 -6
18 -1 36 5 16 5 32 0 35 -4 3 -4 20 0 39 4 19 4 40 -1 47 -4 7 -3 21 2 31 6
12 6 18 0 18 -6 0 -7 9 -3 23 9 27 9 48 -1 64 -4 7 -3 22 3 33 7 14 8 26 0 39
-7 14 -7 22 0 26 8 5 8 11 0 20 -8 10 -8 19 0 34 7 15 8 27 0 40 -7 14 -7 22
0 26 8 5 8 11 0 20 -8 10 -8 19 0 34 7 15 8 27 0 40 -7 14 -7 22 0 26 8 5 8
11 0 20 -8 10 -8 19 0 34 7 15 8 27 0 40 -7 14 -7 22 0 26 8 5 8 11 0 20 -8
10 -8 19 0 34 7 15 8 27 0 40 -7 14 -7 22 0 26 8 5 8 11 0 20 -8 10 -8 19 0
34 7 15 8 27 0 40 -7 14 -7 22 0 26 8 5 8 11 0 20 -8 10 -8 19 0 34 7 13 7 27
2 37 -5 9 -6 33 -2 54 4 21 4 44 0 51 -4 6 -4 24 0 39 4 15 4 33 0 40 -4 6 -4
27 0 46 4 19 4 36 -1 39 -4 3 -4 17 1 30 6 16 6 25 0 25 -6 0 -6 9 -1 23 5 12
5 31 1 42 -4 11 -3 25 2 32 5 7 5 14 -1 17 -6 4 -6 18 -1 35 4 15 4 34 0 41
-5 7 -4 24 1 37 6 17 6 22 -2 17 -8 -4 -8 0 -2 12 10 23 10 55 0 71 -5 7 -3
22 3 33 7 14 8 26 0 39 -7 14 -7 22 0 26 8 5 8 11 0 20 -8 10 -8 19 0 34 7 15
8 27 0 40 -7 14 -7 22 0 26 8 5 8 11 0 20 -8 10 -8 19 0 34 7 13 7 27 2 37 -5
9 -6 33 -2 54 4 21 4 44 0 51 -4 6 -4 24 0 39 4 15 4 33 0 40 -4 6 -4 27 0 46
4 19 4 36 -1 39 -4 3 -4 17 1 30 6 16 6 25 0 25 -6 0 -6 9 -1 23 5 12 5 31 1
42 -4 11 -3 25 2 32 5 7 5 14 -1 17 -6 4 -6 18 -1 35 4 15 4 34 0 41 -5 7 -4
24 1 37 6 17 6 22 -2 17 -8 -4 -8 0 -2 12 10 23 10 55 0 71 -5 7 -3 22 3 33 7
14 8 26 0 39 -7 14 -7 22 0 26 8 5 8 11 0 20 -8 10 -8 19 0 34 7 15 8 27 0 40
-7 14 -7 22 0 26 8 5 8 11 0 20 -7 9 -8 21 -3 32 10 20 9 70 0 79 -4 4 -2 15
4 25 6 13 6 19 0 19 -7 0 -7 8 -2 23 5 12 5 31 1 42 -4 11 -3 25 2 32 5 7 5
14 -1 17 -6 4 -6 18 -1 36 5 16 5 32 0 35 -4 3 -4 20 0 39 4 19 4 40 -1 47 -4
7 -3 21 2 31 6 12 6 18 0 18 -6 0 -7 9 -3 23 9 27 9 48 -1 64 -4 7 -3 22 3 33
7 13 7 26 1 38 -7 13 -7 22 0 29 8 8 8 13 0 17 -6 4 -7 15 -1 30 4 12 4 29 0
36 -5 8 -4 22 1 32 6 12 6 18 0 18 -7 0 -7 8 -2 23 5 12 5 31 1 42 -4 11 -3
25 2 32 5 7 5 14 -1 17 -6 4 -6 18 -1 36 5 16 5 32 0 35 -4 3 -4 20 0 39 4 19
4 40 -1 47 -4 7 -3 21 2 31 6 12 6 18 0 18 -6 0 -7 9 -3 23 9 27 9 48 -1 64
-4 7 -3 22 3 33 7 14 8 26 0 39 -7 14 -7 22 0 26 8 5 8 11 0 20 -8 10 -8 19 0
34 7 15 8 27 0 40 -7 14 -7 22 0 26 8 5 8 11 0 20 -8 10 -8 19 0 34 7 15 8 27
0 40 -7 14 -7 22 0 26 8 5 8 11 0 20 -8 10 -8 19 0 34 7 15 8 27 0 40 -7 14
-7 22 0 26 8 5 8 11 0 20 -8 10 -8 19 0 34 7 15 8 27 0 40 -7 14 -7 22 0 26 8
5 8 11 0 20 -8 10 -8 19 0 34 7 15 8 27 0 40 -7 14 -7 22 0 26 8 5 8 11 0 20
-8 9 -8 20 -2 32 5 10 7 27 5 38 -5 25 -4 86 3 96 2 4 0 10 -5 13 -6 4 -6 18
-1 35 4 15 4 34 0 41 -4 6 -4 27 0 46 4 19 4 36 0 39 -8 5 -5 48 5 64 3 6 1
19 -5 30 -7 14 -7 22 0 26 8 5 8 11 0 20 -8 10 -8 19 0 34 7 15 8 27 0 40 -7
14 -7 22 0 26 8 5 8 11 0 20 -8 10 -8 19 0 34 7 15 8 27 0 40 -7 14 -7 22 0
26 8 5 8 11 0 20 -8 10 -8 19 0 34 7 15 8 27 0 40 -7 14 -7 22 0 26 8 5 8 11
0 20 -8 10 -8 19 0 34 7 15 8 27 0 40 -7 14 -7 22 0 26 8 5 8 11 0 20 -8 10
-8 19 0 34 7 13 7 27 2 37 -5 9 -6 33 -2 54 4 21 4 44 0 51 -4 6 -4 24 0 39 4
15 4 33 0 40 -4 6 -4 27 0 46 4 19 4 36 0 39 -4 2 -5 17 -3 32 6 35 6 51 0 86
-2 15 0 30 5 33 32 20 -48 24 -503 24 l-499 0 0 -4760z"/>
<path d="M1260 8681 c-23 -4 -31 -9 -22 -14 8 -6 9 -14 2 -26 -6 -12 -5 -22 1
-28 8 -8 7 -17 0 -32 -8 -15 -9 -27 -1 -40 7 -14 7 -22 0 -26 -8 -5 -8 -11 0
-20 8 -10 8 -19 0 -34 -7 -15 -8 -27 0 -40 7 -14 7 -22 0 -26 -8 -5 -8 -11 0
-20 8 -10 8 -19 0 -34 -7 -15 -8 -27 0 -40 7 -14 7 -22 0 -26 -8 -5 -8 -11 0
-20 8 -10 8 -19 0 -34 -7 -15 -8 -27 0 -40 7 -14 7 -22 0 -26 -8 -5 -8 -11 0
-20 8 -10 8 -19 0 -34 -7 -15 -8 -27 0 -40 7 -14 7 -22 0 -26 -8 -5 -8 -11 0
-20 8 -10 8 -19 0 -34 -7 -13 -7 -27 -2 -37 5 -9 6 -33 2 -54 -4 -21 -4 -44 0
-51 4 -6 4 -24 0 -39 -4 -15 -4 -33 0 -40 4 -6 4 -27 0 -46 -4 -19 -4 -36 0
-39 5 -3 5 -18 0 -34 -4 -15 -4 -34 0 -41 4 -6 4 -27 0 -46 -4 -19 -4 -36 0
-39 5 -3 5 -18 0 -34 -4 -15 -4 -34 0 -41 4 -6 4 -27 0 -46 -4 -19 -4 -37 1
-40 5 -3 5 -12 0 -23 -5 -9 -6 -23 -2 -30 5 -7 5 -30 1 -51 -4 -21 -4 -44 0
-51 4 -6 4 -24 0 -39 -4 -15 -4 -33 0 -40 4 -6 4 -27 0 -46 -4 -19 -4 -36 0
-39 5 -3 5 -18 0 -34 -4 -15 -4 -34 0 -41 4 -6 4 -27 0 -46 -4 -19 -4 -36 0
-39 5 -3 5 -18 0 -34 -4 -15 -4 -34 0 -41 4 -6 4 -27 0 -46 -4 -19 -4 -36 0
-39 8 -5 5 -48 -5 -64 -3 -6 -1 -19 5 -30 7 -14 7 -22 0 -26 -8 -5 -8 -11 0
-20 8 -10 8 -19 0 -34 -7 -15 -8 -27 0 -40 7 -14 7 -22 0 -26 -8 -5 -8 -11 0
-20 8 -10 8 -19 0 -34 -6 -12 -7 -28 -3 -38 10 -22 10 -44 0 -60 -4 -6 -3 -14
2 -17 6 -4 6 -18 1 -35 -4 -15 -4 -34 0 -42 5 -7 4 -21 -1 -31 -6 -12 -6 -18
0 -18 7 0 7 -8 2 -22 -5 -13 -5 -32 -1 -43 4 -11 3 -25 -2 -32 -5 -7 -5 -14 1
-17 6 -4 6 -18 1 -35 -4 -15 -4 -34 0 -42 5 -7 4 -21 -1 -31 -6 -12 -6 -18 0
-18 6 0 7 -9 3 -22 -9 -28 -9 -49 1 -65 4 -7 3 -22 -3 -33 -7 -14 -8 -26 0
-39 7 -14 7 -22 0 -26 -8 -5 -8 -11 0 -20 8 -10 8 -19 0 -34 -7 -15 -8 -27 0
-40 7 -14 7 -22 0 -26 -8 -5 -8 -11 0 -20 8 -10 8 -19 0 -34 -7 -15 -8 -27 0
-40 7 -14 7 -22 0 -26 -8 -5 -8 -11 0 -20 8 -10 8 -19 0 -34 -6 -12 -7 -28 -3
-38 10 -22 10 -44 0 -60 -4 -6 -3 -14 2 -17 6 -4 6 -18 1 -35 -4 -15 -4 -34 0
-42 5 -7 4 -21 -1 -31 -6 -12 -6 -18 0 -18 7 0 7 -8 2 -22 -5 -13 -5 -32 -1
-43 4 -11 3 -25 -2 -32 -5 -7 -5 -14 1 -17 6 -4 6 -18 1 -35 -4 -15 -4 -34 0
-42 5 -7 4 -21 -1 -31 -6 -12 -6 -18 0 -18 6 0 7 -9 3 -22 -9 -28 -9 -49 1
-65 4 -7 3 -22 -3 -33 -7 -14 -8 -26 0 -39 7 -14 7 -22 0 -26 -8 -5 -8 -11 0
-20 8 -10 8 -19 0 -34 -7 -15 -8 -27 0 -40 7 -14 7 -22 0 -26 -8 -5 -8 -11 0
-20 8 -10 8 -19 0 -34 -7 -15 -8 -27 0 -40 7 -14 7 -22 0 -26 -8 -5 -8 -11 0
-20 8 -10 8 -19 0 -34 -7 -15 -8 -27 0 -40 7 -14 7 -22 0 -26 -8 -5 -8 -11 0
-20 8 -10 8 -19 0 -34 -7 -15 -8 -27 0 -40 7 -14 7 -22 0 -26 -8 -5 -8 -11 0
-20 8 -10 8 -19 0 -34 -7 -15 -8 -27 0 -40 7 -14 7 -22 0 -26 -8 -5 -8 -11 0
-20 8 -10 8 -19 0 -34 -7 -13 -7 -27 -2 -37 5 -9 6 -33 2 -54 -4 -21 -4 -44 0
-51 4 -6 4 -24 0 -39 -4 -15 -4 -33 0 -40 4 -6 4 -27 0 -46 -4 -19 -4 -36 0
-39 5 -3 5 -18 0 -34 -4 -15 -4 -34 0 -41 4 -6 4 -27 0 -46 -4 -19 -4 -36 0
-39 5 -3 5 -18 0 -34 -4 -15 -4 -34 0 -41 4 -6 4 -27 0 -46 -4 -19 -4 -37 1
-40 5 -3 5 -12 0 -23 -5 -9 -6 -23 -2 -30 5 -7 5 -30 1 -51 -4 -21 -4 -44 0
-51 4 -6 4 -24 0 -39 -4 -15 -4 -33 0 -40 4 -6 4 -27 0 -46 -4 -19 -4 -36 0
-39 5 -3 5 -18 0 -34 -4 -15 -4 -34 0 -41 4 -6 4 -27 0 -46 -4 -19 -4 -36 0
-39 5 -3 5 -18 0 -34 -4 -15 -4 -34 0 -41 4 -6 4 -27 0 -46 -4 -19 -4 -36 0
-39 8 -5 5 -48 -5 -64 -3 -6 -1 -19 5 -30 7 -14 7 -22 0 -26 -8 -5 -8 -11 0
-20 8 -10 8 -19 0 -34 -7 -15 -8 -27 0 -40 7 -14 7 -22 0 -26 -8 -5 -8 -11 0
-20 8 -10 8 -19 0 -34 -6 -12 -7 -28 -3 -38 10 -22 10 -44 0 -60 -4 -6 -3 -14
2 -17 6 -4 6 -18 1 -35 -4 -15 -4 -34 0 -42 5 -7 4 -21 -1 -31 -6 -12 -6 -18
0 -18 7 0 7 -8 2 -22 -5 -13 -5 -32 -1 -43 4 -11 3 -25 -2 -32 -5 -7 -5 -14 1
-17 6 -4 6 -18 1 -35 -4 -15 -4 -34 0 -42 5 -7 4 -21 -1 -31 -6 -12 -6 -18 0
-18 6 0 7 -9 3 -23 -9 -27 -9 -48 1 -64 4 -7 3 -22 -3 -33 -7 -14 -8 -26 0
-39 7 -14 7 -22 0 -26 -8 -5 -8 -11 0 -20 8 -10 8 -19 0 -34 -7 -15 -8 -27 0
-40 7 -14 7 -22 0 -26 -8 -5 -8 -11 0 -20 8 -10 8 -19 0 -34 -7 -15 -8 -27 0
-40 7 -14 7 -22 0 -26 -8 -5 -8 -11 0 -20 8 -9 8 -20 1 -32 -21 -41 -10 -43
344 -42 187 0 354 1 370 2 l30 2 0 3547 1 3546 -73 1 c-40 1 -79 2 -85 2 -7 0
-47 0 -88 0 -41 0 -82 0 -90 0 -8 0 -40 0 -70 0 -30 0 -62 0 -70 0 -8 0 -56 0
-107 -1 -51 -1 -96 0 -100 2 -4 2 -24 2 -43 -1z"/>
<path d="M2480 7879 c0 -3 -12 -4 -27 -1 -22 3 -25 2 -16 -8 7 -8 8 -22 3 -41
-11 -37 -11 -41 2 -56 6 -8 6 -19 -2 -32 -6 -13 -7 -28 -2 -38 5 -10 6 -29 2
-43 -4 -14 -3 -33 2 -42 5 -10 4 -19 -2 -23 -8 -5 -7 -11 1 -21 9 -11 9 -14 0
-14 -8 0 -9 -5 -1 -19 7 -14 7 -22 0 -26 -8 -5 -7 -11 1 -21 9 -11 9 -14 0
-14 -8 0 -9 -5 -3 -16 5 -9 6 -32 2 -50 -4 -19 -4 -34 1 -34 5 0 5 -10 1 -22
-9 -28 -9 -49 1 -65 4 -7 3 -22 -3 -33 -6 -12 -7 -27 -2 -37 5 -10 6 -29 2
-43 -4 -14 -3 -33 2 -42 5 -10 4 -19 -2 -23 -8 -5 -7 -11 1 -21 9 -11 9 -14 0
-14 -8 0 -9 -5 -1 -19 7 -14 7 -22 0 -26 -8 -5 -8 -11 0 -20 8 -9 8 -15 0 -20
-6 -4 -7 -12 -1 -23 5 -9 5 -26 0 -39 -5 -13 -4 -25 1 -28 5 -3 6 -16 2 -28
-9 -27 -9 -48 1 -64 4 -7 3 -22 -3 -33 -6 -12 -7 -27 -2 -37 5 -10 6 -29 2
-43 -4 -14 -3 -33 2 -42 5 -10 4 -19 -2 -23 -8 -5 -7 -11 1 -21 9 -11 9 -14 0
-14 -8 0 -9 -5 -1 -19 7 -14 7 -22 0 -26 -8 -5 -7 -11 1 -21 9 -11 9 -14 0
-14 -8 0 -9 -5 -3 -16 5 -9 6 -32 2 -50 -4 -19 -4 -34 1 -34 5 0 5 -10 1 -22
-9 -28 -9 -49 1 -65 4 -7 3 -22 -3 -33 -6 -12 -7 -27 -2 -37 5 -10 6 -29 2
-43 -4 -14 -3 -33 2 -42 5 -10 4 -19 -2 -23 -8 -5 -7 -11 1 -21 9 -11 9 -14 0
-14 -8 0 -9 -5 -1 -19 7 -14 7 -22 0 -26 -8 -5 -8 -11 0 -20 8 -9 8 -15 0 -20
-6 -4 -7 -12 -1 -23 5 -9 5 -26 0 -39 -5 -13 -4 -25 1 -28 5 -3 6 -16 2 -28
-9 -27 -9 -48 1 -64 4 -7 3 -22 -3 -33 -6 -12 -7 -27 -2 -37 5 -10 6 -29 2
-43 -4 -14 -3 -33 2 -42 5 -10 4 -19 -2 -23 -8 -5 -7 -11 1 -21 9 -11 9 -14 0
-14 -8 0 -9 -5 -1 -19 7 -14 7 -22 0 -26 -8 -5 -7 -11 1 -21 9 -11 9 -14 0
-14 -8 0 -9 -5 -3 -16 5 -9 6 -32 2 -50 -4 -19 -4 -34 1 -34 5 0 5 -10 1 -22
-9 -28 -9 -49 1 -65 4 -7 3 -22 -3 -33 -6 -12 -7 -27 -2 -37 5 -10 6 -29 2
-43 -4 -14 -3 -33 2 -42 5 -10 4 -19 -2 -23 -8 -5 -7 -11 1 -21 9 -11 9 -14 0
-14 -8 0 -9 -5 -1 -19 7 -14 7 -22 0 -26 -8 -5 -8 -11 0 -20 8 -9 8 -15 0 -20
-6 -4 -7 -12 -1 -23 5 -9 5 -26 0 -39 -5 -13 -4 -25 1 -28 5 -3 6 -16 2 -28
-9 -27 -9 -48 1 -64 4 -7 3 -22 -3 -33 -6 -12 -7 -27 -2 -37 5 -10 6 -29 2
-43 -4 -14 -3 -33 2 -42 5 -10 4 -19 -2 -23 -8 -5 -7 -11 1 -21 9 -11 9 -14 0
-14 -8 0 -9 -5 -1 -19 7 -14 7 -22 0 -26 -8 -5 -7 -11 1 -21 9 -11 9 -14 0
-14 -8 0 -9 -5 -3 -16 5 -9 6 -32 2 -50 -4 -19 -4 -34 1 -34 5 0 5 -10 1 -22
-9 -28 -9 -49 1 -65 4 -7 3 -22 -3 -33 -6 -12 -7 -27 -2 -37 5 -10 6 -29 2
-43 -4 -14 -3 -33 2 -42 5 -10 4 -19 -2 -23 -8 -5 -7 -11 1 -21 9 -11 9 -14 0
-14 -8 0 -9 -5 -1 -19 7 -14 7 -22 0 -26 -8 -5 -8 -11 0 -20 8 -9 8 -15 0 -20
-6 -4 -7 -12 -1 -23 5 -9 5 -26 0 -39 -5 -13 -4 -25 1 -28 5 -3 6 -16 2 -28
-9 -27 -9 -48 1 -64 4 -7 3 -22 -3 -33 -6 -12 -7 -27 -2 -38 5 -9 6 -28 2 -42
-4 -14 -3 -33 2 -42 5 -10 4 -19 -2 -23 -8 -5 -7 -11 1 -21 9 -11 9 -14 0 -14
-8 0 -9 -5 -1 -19 7 -14 7 -22 0 -26 -8 -5 -7 -11 1 -21 9 -11 9 -14 0 -14 -8
0 -9 -5 -3 -16 5 -9 6 -32 2 -50 -4 -19 -4 -34 1 -34 5 0 5 -10 1 -22 -9 -28
-9 -49 1 -65 4 -7 3 -22 -3 -33 -6 -12 -7 -27 -2 -37 5 -10 6 -29 2 -43 -4
-14 -3 -33 2 -42 5 -10 4 -19 -2 -23 -8 -5 -7 -11 1 -21 9 -11 9 -14 0 -14 -8
0 -9 -5 -1 -19 7 -14 7 -22 0 -26 -8 -5 -8 -11 0 -20 8 -9 8 -15 0 -20 -6 -4
-7 -12 -1 -23 5 -9 5 -26 0 -39 -5 -13 -4 -25 1 -28 5 -3 6 -16 2 -28 -9 -27
-9 -48 1 -64 4 -7 3 -21 -3 -32 -5 -11 -7 -28 -3 -37 9 -23 9 -65 0 -88 -4
-10 -3 -24 2 -30 6 -7 6 -17 1 -26 -5 -9 -5 -19 1 -27 7 -8 7 -18 -1 -32 -7
-15 -7 -21 0 -21 7 0 7 -6 0 -21 -8 -14 -8 -24 -1 -32 6 -8 6 -18 1 -27 -5 -9
-5 -19 1 -27 7 -8 7 -18 -1 -32 -7 -15 -7 -21 0 -21 7 0 7 -6 0 -21 -8 -14 -8
-24 -1 -32 6 -8 6 -18 1 -27 -5 -9 -5 -19 1 -27 7 -8 7 -18 -1 -32 -7 -15 -7
-21 0 -21 7 0 7 -6 0 -21 -8 -14 -8 -24 -1 -32 6 -8 6 -18 1 -27 -5 -9 -5 -19
1 -27 7 -8 7 -18 -1 -32 -7 -15 -7 -21 0 -21 7 0 7 -6 0 -21 -8 -14 -8 -24 -1
-32 6 -8 6 -18 1 -27 -5 -9 -5 -19 1 -27 7 -8 7 -18 -1 -32 -7 -15 -7 -21 0
-21 7 0 8 -6 2 -17 -21 -40 -7 -44 160 -42 88 0 161 -1 163 -3 2 -1 69 -2 150
0 l146 3 -1 195 c-1 108 0 197 2 199 2 2 1 56 -2 120 -3 64 -3 118 0 120 3 2
3 56 0 120 -3 64 -3 118 0 120 3 2 3 56 0 120 -3 64 -3 118 0 120 3 2 3 56 0
120 -3 64 -3 118 0 120 3 2 3 56 0 120 -3 64 -3 118 0 120 3 2 3 56 0 120 -3
64 -3 118 0 120 3 2 3 56 0 120 -3 64 -3 118 0 120 3 2 3 164 0 360 -3 196 -3
358 0 360 3 2 3 56 0 120 -3 64 -3 118 0 120 3 2 3 56 0 120 -3 64 -3 118 0
120 3 2 3 56 0 120 -3 64 -3 118 0 120 3 2 3 56 0 120 -3 64 -3 118 0 120 3 2
3 56 0 120 -3 64 -3 118 0 120 3 2 3 164 0 360 -3 196 -3 358 0 360 3 2 3 56
0 120 -3 64 -3 118 0 120 3 2 3 56 0 120 -3 64 -3 118 0 120 3 2 3 56 0 120
-3 64 -3 118 0 120 3 2 3 56 0 120 -3 64 -3 118 -1 120 4 4 1 218 -3 222 -2 2
-31 3 -96 3 -19 0 -93 0 -163 0 -71 0 -132 -2 -138 -5 -5 -4 -9 -3 -9 2 0 4
-38 8 -85 8 -47 0 -85 -3 -85 -6z"/>
</g>
</svg>
