<svg width="526" height="476" viewBox="0 0 526 476" fill="none" xmlns="http://www.w3.org/2000/svg">
<rect width="50" height="476" fill="#0F8236"/>
<rect width="37.2899" height="355" transform="matrix(-1 0 0 1 99.2899 67)" fill="#FAFF00"/>
<rect width="30.9874" height="295" transform="matrix(-1 0 0 1 152.987 107)" fill="#00F0FF"/>
<rect width="30.9874" height="295" transform="matrix(3.05636e-09 -1 -1 -3.05636e-09 487 361.987)" fill="#0A0909"/>
<path d="M254.541 150.109V224H245.882L205.617 165.984H204.895V224H195.948V150.109H204.607L245.016 208.269H245.738V150.109H254.541ZM272.445 224V150.109H317.04V158.047H281.393V183.014H314.731V190.951H281.393V216.062H317.617V224H272.445ZM329.126 158.047V150.109H384.545V158.047H361.309V224H352.362V158.047H329.126ZM398.354 224V150.109H423.321C429.094 150.109 433.832 151.095 437.536 153.068C441.241 155.016 443.983 157.698 445.763 161.113C447.542 164.529 448.432 168.413 448.432 172.767C448.432 177.121 447.542 180.981 445.763 184.349C443.983 187.716 441.253 190.362 437.572 192.286C433.892 194.186 429.19 195.136 423.465 195.136H403.261V187.055H423.177C427.121 187.055 430.296 186.477 432.702 185.323C435.131 184.168 436.887 182.533 437.969 180.416C439.076 178.275 439.629 175.726 439.629 172.767C439.629 169.809 439.076 167.223 437.969 165.01C436.863 162.797 435.095 161.089 432.666 159.887C430.236 158.66 427.025 158.047 423.032 158.047H407.302V224H398.354ZM433.135 190.807L451.319 224H440.928L423.032 190.807H433.135ZM525.688 187.055C525.688 194.848 524.281 201.583 521.466 207.259C518.652 212.936 514.792 217.313 509.885 220.392C504.978 223.471 499.374 225.01 493.072 225.01C486.77 225.01 481.166 223.471 476.259 220.392C471.352 217.313 467.491 212.936 464.677 207.259C461.863 201.583 460.456 194.848 460.456 187.055C460.456 179.261 461.863 172.527 464.677 166.85C467.491 161.173 471.352 156.796 476.259 153.717C481.166 150.638 486.77 149.099 493.072 149.099C499.374 149.099 504.978 150.638 509.885 153.717C514.792 156.796 518.652 161.173 521.466 166.85C524.281 172.527 525.688 179.261 525.688 187.055ZM517.029 187.055C517.029 180.656 515.958 175.257 513.818 170.855C511.701 166.453 508.827 163.122 505.195 160.861C501.587 158.6 497.546 157.469 493.072 157.469C488.598 157.469 484.545 158.6 480.913 160.861C477.305 163.122 474.431 166.453 472.29 170.855C470.173 175.257 469.115 180.656 469.115 187.055C469.115 193.453 470.173 198.853 472.29 203.254C474.431 207.656 477.305 210.987 480.913 213.248C484.545 215.509 488.598 216.64 493.072 216.64C497.546 216.64 501.587 215.509 505.195 213.248C508.827 210.987 511.701 207.656 513.818 203.254C515.958 198.853 517.029 193.453 517.029 187.055Z" fill="#0A0909"/>
<path d="M197.717 250.396H204.54L220.583 289.583H221.136L237.18 250.396H244.003V297.604H238.655V261.737H238.194L223.441 297.604H218.278L203.525 261.737H203.064V297.604H197.717V250.396ZM254.727 297.604V262.198H260.167V297.604H254.727ZM257.493 256.297C256.433 256.297 255.518 255.936 254.75 255.214C253.997 254.492 253.621 253.623 253.621 252.609C253.621 251.595 253.997 250.727 254.75 250.004C255.518 249.282 256.433 248.921 257.493 248.921C258.553 248.921 259.46 249.282 260.213 250.004C260.981 250.727 261.366 251.595 261.366 252.609C261.366 253.623 260.981 254.492 260.213 255.214C259.46 255.936 258.553 256.297 257.493 256.297ZM275.571 276.305V297.604H270.131V262.198H275.386V267.73H275.847C276.677 265.932 277.937 264.488 279.628 263.397C281.318 262.29 283.5 261.737 286.174 261.737C288.571 261.737 290.669 262.229 292.467 263.212C294.265 264.181 295.663 265.656 296.662 267.638C297.661 269.605 298.161 272.095 298.161 275.107V297.604H292.721V275.475C292.721 272.694 291.998 270.527 290.554 268.975C289.109 267.408 287.127 266.624 284.607 266.624C282.87 266.624 281.318 267 279.95 267.753C278.598 268.506 277.53 269.605 276.746 271.05C275.963 272.494 275.571 274.246 275.571 276.305ZM322.946 298.342C319.534 298.342 316.592 297.589 314.117 296.083C311.659 294.562 309.761 292.441 308.424 289.721C307.102 286.986 306.442 283.804 306.442 280.178C306.442 276.551 307.102 273.355 308.424 270.589C309.761 267.807 311.62 265.64 314.002 264.088C316.4 262.521 319.196 261.737 322.393 261.737C324.237 261.737 326.058 262.045 327.856 262.659C329.654 263.274 331.29 264.273 332.766 265.656C334.241 267.023 335.416 268.837 336.292 271.096C337.168 273.355 337.606 276.136 337.606 279.44V281.745H310.314V277.043H332.074C332.074 275.045 331.675 273.263 330.875 271.695C330.092 270.128 328.97 268.891 327.51 267.984C326.065 267.077 324.36 266.624 322.393 266.624C320.226 266.624 318.351 267.162 316.768 268.238C315.201 269.298 313.995 270.681 313.149 272.387C312.304 274.092 311.882 275.921 311.882 277.873V281.008C311.882 283.682 312.343 285.948 313.265 287.808C314.202 289.652 315.501 291.058 317.16 292.026C318.82 292.979 320.748 293.455 322.946 293.455C324.375 293.455 325.666 293.255 326.818 292.856C327.986 292.441 328.993 291.826 329.838 291.012C330.683 290.182 331.336 289.152 331.797 287.923L337.053 289.398C336.5 291.181 335.57 292.748 334.264 294.101C332.958 295.437 331.344 296.482 329.423 297.235C327.502 297.973 325.343 298.342 322.946 298.342ZM345.882 297.604V262.198H351.137V267.546H351.506C352.151 265.794 353.319 264.373 355.01 263.282C356.7 262.191 358.606 261.645 360.726 261.645C361.126 261.645 361.625 261.653 362.225 261.668C362.824 261.683 363.277 261.706 363.585 261.737V267.269C363.4 267.223 362.978 267.154 362.317 267.062C361.671 266.954 360.987 266.901 360.265 266.901C358.544 266.901 357.007 267.262 355.655 267.984C354.318 268.691 353.258 269.674 352.474 270.934C351.706 272.179 351.322 273.601 351.322 275.199V297.604H345.882ZM395.112 270.128L390.226 271.511C389.918 270.696 389.465 269.905 388.866 269.136C388.282 268.353 387.482 267.707 386.468 267.2C385.454 266.693 384.155 266.44 382.573 266.44C380.406 266.44 378.6 266.939 377.156 267.938C375.727 268.921 375.012 270.174 375.012 271.695C375.012 273.047 375.504 274.115 376.487 274.899C377.471 275.683 379.007 276.336 381.097 276.859L386.353 278.149C389.519 278.918 391.878 280.093 393.43 281.676C394.982 283.244 395.758 285.264 395.758 287.739C395.758 289.767 395.174 291.58 394.006 293.178C392.853 294.777 391.24 296.037 389.165 296.959C387.091 297.881 384.678 298.342 381.927 298.342C378.316 298.342 375.327 297.558 372.96 295.991C370.594 294.423 369.096 292.134 368.466 289.122L373.629 287.831C374.121 289.736 375.05 291.165 376.418 292.118C377.801 293.071 379.607 293.547 381.835 293.547C384.371 293.547 386.384 293.009 387.874 291.934C389.38 290.843 390.133 289.536 390.133 288.015C390.133 286.786 389.703 285.756 388.842 284.926C387.982 284.081 386.66 283.451 384.878 283.036L378.977 281.653C375.734 280.885 373.352 279.694 371.831 278.08C370.325 276.451 369.572 274.415 369.572 271.972C369.572 269.974 370.133 268.207 371.255 266.67C372.392 265.133 373.936 263.927 375.888 263.051C377.855 262.175 380.083 261.737 382.573 261.737C386.076 261.737 388.827 262.506 390.825 264.042C392.838 265.579 394.267 267.607 395.112 270.128Z" fill="#00F0FF"/>
</svg>
