<?xml version="1.0" encoding="utf-8"?>
<!-- Generator: Adobe Illustrator 23.0.1, SVG Export Plug-In . SVG Version: 6.00 Build 0)  -->
<svg version="1.1" id="Layer_1" xmlns="http://www.w3.org/2000/svg" xmlns:xlink="http://www.w3.org/1999/xlink" x="0px" y="0px"
	 viewBox="0 0 512 512" style="enable-background:new 0 0 512 512;" xml:space="preserve">
<style type="text/css">
	.st0{fill:#FFFFFF;}
</style>
<g id="Accept">
	<path class="st0" d="M112,464H72c-4.4,0-8,3.6-8,8s3.6,8,8,8h40c4.4,0,8-3.6,8-8S116.4,464,112,464z"/>
	<path class="st0" d="M144,464h-8c-4.4,0-8,3.6-8,8s3.6,8,8,8h8c4.4,0,8-3.6,8-8S148.4,464,144,464z"/>
	<path class="st0" d="M88,152h256c4.4,0,8-3.6,8-8v-32c0-4.4-3.6-8-8-8H88c-4.4,0-8,3.6-8,8v32C80,148.4,83.6,152,88,152z M96,120
		h240v16H96V120z"/>
	<path class="st0" d="M88,216h256c4.4,0,8-3.6,8-8v-32c0-4.4-3.6-8-8-8H88c-4.4,0-8,3.6-8,8v32C80,212.4,83.6,216,88,216z M96,184
		h240v16H96V184z"/>
	<path class="st0" d="M88,280h256c4.4,0,8-3.6,8-8v-32c0-4.4-3.6-8-8-8H88c-4.4,0-8,3.6-8,8v32C80,276.4,83.6,280,88,280z M96,248
		h240v16H96V248z"/>
	<path class="st0" d="M240,296H88c-4.4,0-8,3.6-8,8s3.6,8,8,8h152c4.4,0,8-3.6,8-8S244.4,296,240,296z"/>
	<path class="st0" d="M192,320H88c-4.4,0-8,3.6-8,8s3.6,8,8,8h104c4.4,0,8-3.6,8-8S196.4,320,192,320z"/>
	<path class="st0" d="M104,360c4.4,0,8-3.6,8-8s-3.6-8-8-8H88c-4.4,0-8,3.6-8,8s3.6,8,8,8H104z"/>
	<path class="st0" d="M136,360c4.4,0,8-3.6,8-8s-3.6-8-8-8h-8c-4.4,0-8,3.6-8,8s3.6,8,8,8H136z"/>
	<path class="st0" d="M480,384c-0.1-49.9-38.3-91.4-88-95.7V80c0-2.1-0.8-4.2-2.3-5.7l-64-64C324.2,8.8,322.1,8,320,8H48
		c-4.4,0-8,3.6-8,8v480c0,4.4,3.6,8,8,8h336c4.4,0,8-3.6,8-8v-16.3C441.7,475.4,479.9,433.9,480,384z M328,35.3L364.7,72H328V35.3z
		 M56,488V24h256v56c0,4.4,3.6,8,8,8h56v200.3c-52.8,4.4-92.1,50.9-87.6,103.7c3.9,46.7,41,83.7,87.6,87.6v8.3H56z M384,464
		c-44.2,0-80-35.8-80-80s35.8-80,80-80s80,35.8,80,80C463.9,428.2,428.2,463.9,384,464z"/>
	<path class="st0" d="M445.7,354.3c-3.1-3.1-8.2-3.1-11.3,0c0,0,0,0,0,0l-51.6,51.6l-34.6-20.8c-3.8-2.3-8.7-1-11,2.7
		c-2.3,3.8-1,8.7,2.7,11l40,24c3.1,1.9,7.2,1.4,9.8-1.2l56-56C448.8,362.5,448.8,357.5,445.7,354.3
		C445.7,354.3,445.7,354.3,445.7,354.3z"/>
</g>
</svg>
