<?xml version="1.0" encoding="utf-8"?>
<!-- Generator: Adobe Illustrator 23.0.1, SVG Export Plug-In . SVG Version: 6.00 Build 0)  -->
<svg version="1.1" id="Capa_1" xmlns="http://www.w3.org/2000/svg" xmlns:xlink="http://www.w3.org/1999/xlink" x="0px" y="0px"
	 viewBox="0 0 512 512" style="enable-background:new 0 0 512 512;" xml:space="preserve">
<style type="text/css">
	.st0{fill:#FFFFFF;}
</style>
<g>
	<path class="st0" d="M182.3,314.3l15.4,15.4c5.3,5.3,14,5.3,19.3,0l9.7-9.7c1.5,0.7,3.1,1.4,4.7,2v13.7c0,7.5,6.1,13.7,13.7,13.7
		h21.8c7.5,0,13.7-6.1,13.7-13.7V322c1.6-0.6,3.2-1.3,4.7-2l9.7,9.7c5.3,5.3,14,5.3,19.3,0l15.4-15.4c5.3-5.3,5.3-14,0-19.3
		l-9.7-9.7c0.7-1.5,1.4-3.1,2-4.7h13.7c7.5,0,13.7-6.1,13.7-13.7v-21.8c0-7.5-6.1-13.7-13.7-13.7H322c-0.6-1.6-1.3-3.2-2-4.7
		l9.7-9.7c5.3-5.3,5.3-14,0-19.3l-15.4-15.4c-5.3-5.3-14-5.3-19.3,0l-9.7,9.7c-1.5-0.7-3.1-1.4-4.7-2v-13.7
		c0-7.5-6.1-13.7-13.7-13.7h-21.8c-7.5,0-13.7,6.1-13.7,13.7V190c-1.6,0.6-3.2,1.3-4.7,2l-9.7-9.7c-5.3-5.3-14-5.3-19.3,0
		l-15.4,15.4c-5.3,5.3-5.3,14,0,19.3l9.7,9.7c-0.7,1.5-1.4,3.1-2,4.7h-13.7c-7.5,0-13.7,6.1-13.7,13.7v21.8
		c0,7.5,6.1,13.7,13.7,13.7H190c0.6,1.6,1.3,3.2,2,4.7l-9.7,9.7C177,300.3,177,309,182.3,314.3z M190.9,265.6h-13.3v-19.1h13.3
		c5.8,0,10.9-3.6,12.9-9c0.6-1.8,1.3-3.5,2.1-5.1c2.5-5.2,1.4-11.4-2.7-15.5l-9.4-9.4l13.5-13.5l9.4,9.4c4.1,4.1,10.3,5.2,15.5,2.7
		c1.7-0.8,3.4-1.5,5.1-2.1c5.4-1.9,9-7.1,9-12.9v-13.3h19.1v13.3c0,5.8,3.6,10.9,9,12.9c1.8,0.6,3.5,1.3,5.1,2.1
		c5.2,2.5,11.4,1.4,15.5-2.7l9.4-9.4l13.5,13.5l-9.4,9.4c-4.1,4.1-5.2,10.3-2.7,15.5c0.8,1.7,1.5,3.4,2.1,5.1c1.9,5.4,7.1,9,12.9,9
		h13.3v19.1h-13.3c-5.8,0-10.9,3.6-12.9,9c-0.6,1.8-1.3,3.5-2.1,5.1c-2.5,5.2-1.4,11.4,2.7,15.5l9.4,9.4l-13.5,13.5l-9.4-9.4
		c-4.1-4.1-10.3-5.2-15.5-2.7c-1.7,0.8-3.4,1.5-5.1,2.1c-5.4,1.9-9,7.1-9,12.9v13.3h-19.1v-13.3c0-5.8-3.6-10.9-9-12.9
		c-1.8-0.6-3.5-1.3-5.1-2.1c-5.2-2.5-11.4-1.4-15.5,2.7l-9.4,9.4l-13.5-13.5l9.4-9.4c4.1-4.1,5.2-10.3,2.7-15.5
		c-0.8-1.7-1.5-3.4-2.1-5.1C201.8,269.2,196.7,265.6,190.9,265.6L190.9,265.6z"/>
	<path class="st0" d="M256,296c22.1,0,40-18,40-40c0-22.1-18-40-40-40s-40,18-40,40C216,278.1,233.9,296,256,296z M256,231
		c13.8,0,25,11.2,25,25c0,13.8-11.2,25-25,25c-13.8,0-25-11.2-25-25S242.2,231,256,231z"/>
	<path class="st0" d="M94.2,188.4c52.1,0,94.2-42.3,94.2-94.2c0-52-42.3-94.2-94.2-94.2S0,42.3,0,94.2
		C0,146.1,42.2,188.4,94.2,188.4z M144.4,155.4c-14.2,11.7-31.9,18-50.2,18c-17.9,0-35.7-6.1-50.2-18c0-15.5,12.2-26.3,25.9-26.3
		h48.7C132.2,129.1,144.4,139.9,144.4,155.4L144.4,155.4z M94.2,15c43.7,0,79.2,35.5,79.2,79.2c0,18-6,34.5-16.1,47.8
		c-5.4-16.2-20.7-27.9-38.7-27.9H69.9c-18,0-33.3,11.7-38.7,27.9C21,128.8,15,112.2,15,94.2C15,50.5,50.5,15,94.2,15z"/>
	<path class="st0" d="M417.8,323.6c-52,0-94.2,42.3-94.2,94.2c0,51.9,42.2,94.2,94.2,94.2c51.8,0,94.2-42.1,94.2-94.2
		C512,365.8,469.7,323.6,417.8,323.6z M468,479c-29.1,23.9-71.1,24.1-100.4,0c0-15.5,12.2-26.3,25.9-26.3h48.7
		C455.8,452.7,468,463.5,468,479z M480.9,465.6c-5.4-16.2-20.7-27.9-38.7-27.9h-48.7c-18,0-33.3,11.7-38.7,27.9
		c-10.1-13.3-16.1-29.9-16.1-47.8c0-43.7,35.5-79.2,79.2-79.2c43.7,0,79.2,35.5,79.2,79.2C497,435.7,491,452.3,480.9,465.6z"/>
	<path class="st0" d="M120.1,91c14.3-14.3,14.3-37.5,0-51.9h0c-14.3-14.3-37.5-14.3-51.9,0C54,53.5,54,76.6,68.3,91
		C82.6,105.3,105.8,105.3,120.1,91z M78.9,49.7c8.4-8.4,22.2-8.4,30.6,0h0c8.5,8.5,8.5,22.2,0,30.6c-8.4,8.4-22.2,8.4-30.6,0
		C70.4,71.9,70.4,58.2,78.9,49.7z"/>
	<path class="st0" d="M68.3,414.5c14.3,14.3,37.6,14.3,51.9,0c14.3-14.3,14.3-37.6,0-51.9h0c-14.3-14.3-37.6-14.3-51.9,0
		C54,377,54,400.2,68.3,414.5z M78.9,373.3c8.4-8.4,22.2-8.4,30.6,0c8.4,8.4,8.4,22.2,0,30.6c-8.4,8.4-22.2,8.4-30.6,0
		C70.4,395.5,70.4,381.7,78.9,373.3z"/>
	<path class="st0" d="M391.9,39.1c-14.3,14.3-14.3,37.6,0,51.9c14.3,14.3,37.6,14.3,51.9,0c14.3-14.3,14.3-37.5,0-51.9h0
		C429.4,24.8,406.1,24.8,391.9,39.1L391.9,39.1z M433.1,80.4c-8.4,8.4-22.2,8.4-30.6,0c-8.4-8.4-8.4-22.2,0-30.6
		c8.4-8.4,22.2-8.4,30.6,0h0C441.6,58.2,441.6,71.9,433.1,80.4z"/>
	<path class="st0" d="M443.7,362.7c-14.3-14.3-37.6-14.3-51.9,0c-14.3,14.3-14.3,37.6,0,51.9s37.6,14.3,51.9,0
		C458,400.2,458,377,443.7,362.7L443.7,362.7z M433.1,403.9c-8.4,8.4-22.2,8.4-30.6,0c-8.4-8.4-8.4-22.2,0-30.6
		c8.4-8.4,22.2-8.4,30.6,0C441.5,381.7,441.5,395.5,433.1,403.9z"/>
	<path class="st0" d="M303.2,101.7c4.1,0,7.5-3.4,7.5-7.5s-3.4-7.5-7.5-7.5h-94.4c-4.1,0-7.5,3.4-7.5,7.5s3.4,7.5,7.5,7.5H303.2z"/>
	<path class="st0" d="M208.8,410.3c-4.1,0-7.5,3.4-7.5,7.5s3.4,7.5,7.5,7.5h94.4c4.1,0,7.5-3.4,7.5-7.5s-3.4-7.5-7.5-7.5H208.8z"/>
	<path class="st0" d="M101.7,303.2v-94.4c0-4.1-3.4-7.5-7.5-7.5s-7.5,3.4-7.5,7.5v94.4c0,4.1,3.4,7.5,7.5,7.5
		S101.7,307.3,101.7,303.2z"/>
	<path class="st0" d="M425.3,303.2v-94.4c0-4.1-3.4-7.5-7.5-7.5s-7.5,3.4-7.5,7.5v94.4c0,4.1,3.4,7.5,7.5,7.5
		S425.3,307.3,425.3,303.2z"/>
	<path class="st0" d="M495.5,78.9c0.8,4.1,4.7,6.7,8.8,5.9c4.1-0.8,6.7-4.7,5.9-8.8C501.6,32,462.7,0,417.8,0
		c-52,0-94.2,42.3-94.2,94.2c0,52.2,42.4,94.2,94.2,94.2c44.5,0,82.9-31.3,92.1-74.4c0.9-4.1-1.7-8-5.8-8.9c-4-0.9-8,1.7-8.9,5.8
		c-2.5,11.6-7.5,22.1-14.4,31.1c-5.4-16.2-20.7-27.9-38.7-27.9h-48.7c-18,0-33.3,11.7-38.7,27.9c-10.1-13.3-16.1-29.9-16.1-47.8
		c0-43.7,35.5-79.2,79.2-79.2C455.6,15,488.3,41.9,495.5,78.9L495.5,78.9z M393.4,129.1h48.7c14.3,0,25.9,11.6,25.9,25.9v0.4
		c-13.8,11.3-31.4,18.1-50.2,18.1c-17.7,0-35.5-5.9-50.2-18C367.6,139.9,379.8,129.1,393.4,129.1z"/>
	<path class="st0" d="M94.2,512c52,0,94.2-42.3,94.2-94.2c0-44.6-31.6-83.4-75.2-92.3c-4.1-0.8-8,1.8-8.9,5.8s1.8,8,5.8,8.9
		c36.6,7.5,63.2,40.1,63.2,77.6c0,18-6,34.5-16.1,47.8c-5.4-16.2-20.7-27.9-38.7-27.9H69.9c-18,0-33.3,11.7-38.7,27.9
		C21,452.3,15,435.7,15,417.8c0-37.5,26.6-70.1,63.2-77.6c4.1-0.8,6.7-4.8,5.8-8.9s-4.8-6.7-8.9-5.8C31.6,334.4,0,373.2,0,417.8
		C0,469.6,42.1,512,94.2,512L94.2,512z M69.9,452.7h48.7c13.6,0,25.9,10.8,25.9,26.3c-29,23.9-71,24.1-100.4,0
		C44,463.5,56.3,452.7,69.9,452.7z"/>
</g>
</svg>
