<?xml version="1.0" encoding="utf-8"?>
<!-- Generator: Adobe Illustrator 23.0.1, SVG Export Plug-In . SVG Version: 6.00 Build 0)  -->
<svg version="1.1" id="_x33_0" xmlns="http://www.w3.org/2000/svg" xmlns:xlink="http://www.w3.org/1999/xlink" x="0px" y="0px"
	 viewBox="0 0 512 512" style="enable-background:new 0 0 512 512;" xml:space="preserve">
<style type="text/css">
	.st0{fill:#FFFFFF;}
</style>
<g>
	<path class="st0" d="M256,200c22.1,0,40-17.9,40-40s-17.9-40-40-40s-40,17.9-40,40S233.9,200,256,200z M256,136
		c13.2,0,24,10.8,24,24s-10.8,24-24,24s-24-10.8-24-24S242.8,136,256,136z"/>
	<path class="st0" d="M504,255.1c0-48-39.1-87.1-87.1-87.1h-4.6c7.6-15.9,11.7-33.5,11.7-51.8c0-25.1-8.3-50-23.3-70
		C382.7,22.3,354.2,8,324.2,8c-25.5,0-49.5,9.9-67.5,28l-0.7,0.7l-0.7-0.7c-18-18-42-28-67.5-28c-29.9,0-58.5,14.3-76.4,38.2
		c-15,20.1-23.3,45-23.3,70.7c0,17.8,4,35.2,11.7,51.1h-4.6C47.1,168,8,207.1,8,255.1c0,33.2,18.4,63,48,77.8v23.5
		c-9.5,5.5-16,15.8-16,27.5v120h119.2c7.8,0,15.1-3,20.7-8.6l75.2-75.2c0.4-0.4,0.6-0.8,1-1.2c0.3,0.4,0.6,0.8,1,1.2l75.2,75.2
		c5.5,5.5,12.8,8.6,20.6,8.6H472V384c0-11.8-6.5-22-16-27.6v-23.5C485.6,318.1,504,288.3,504,255.1L504,255.1z M488,255.1
		c0,24.3-12.1,46.3-32,59.4v-8.6c0-9.1-5.1-17.4-13.3-21.5l-14.3-7.2c-2.7-1.4-4.4-4.1-4.4-7.2V248c0-13.2-10.8-24-24-24h-36
		c-11,0-20-9-20-20s9-20,20-20h52.9C456.1,184,488,215.9,488,255.1L488,255.1z M344,292.9v14.6c0,20.1,16.4,36.5,36.5,36.5
		c3,0,6-0.4,8.8-1.1l2.7-0.7v13.1c-25.1,14.2-42.1,38.6-46.7,66.6l-45-45c-5.8-5.8-13.5-9-21.6-9c-9,0-17,4-22.6,10.2
		c-5.6-6.2-13.6-10.2-22.6-10.2c-8.2,0-15.9,3.2-21.7,9l-45,45c-4.6-28-21.6-52.3-46.7-66.6v-13.2l2.7,0.7c2.9,0.7,5.9,1.1,8.9,1.1
		c20.1,0,36.5-16.4,36.5-36.5v-14.6l17.5-8.8l-11.2-39.1l81.7,69.4l81.7-69.4l-11.2,39.1L344,292.9z M199.9,115.3l-0.5-0.5
		l11.3-11.3l0.5,0.5c6,6,15.2,7.7,23.4,4.3c8.1-3.4,13.3-11,13.3-19.5V88h16v0.7c0,8.5,5.2,16.1,13.5,19.6
		c8.1,3.4,17.3,1.7,23.3-4.3l0.5-0.5l11.3,11.3l-0.5,0.5c-6,6-7.7,15.2-4.3,23.4c3.4,8.1,11,13.3,19.5,13.3h0.7v16h-0.7
		c-8.5,0-16.1,5.2-19.5,13.3l-0.4,1c-3,8-1.2,16.6,4.7,22.4l0.5,0.5l-11.3,11.3l-0.5-0.5c-6-6-15.2-7.7-23.4-4.3
		c-8.1,3.4-13.3,11-13.3,19.5v0.7h-16v-0.7c0-8.5-5.2-16.1-13.5-19.6c-8.1-3.4-17.3-1.7-23.3,4.3l-0.5,0.5l-11.3-11.3l0.5-0.5
		c6-6,7.7-15.2,4.3-23.4c-3.4-8.1-11-13.3-19.5-13.3H184v-16h0.7c8.5,0,16.1-5.2,19.6-13.5C207.6,130.4,205.9,121.3,199.9,115.3
		L199.9,115.3z M183.1,211.7l27.6,27.6l11.8-11.8c1.4-1.4,3.7-1.8,6-0.8c2.1,0.9,3.4,2.7,3.4,4.7V248h48v-16.7c0-2,1.3-3.8,3.6-4.8
		c2.2-0.9,4.4-0.6,5.8,0.9l11.8,11.8l27.6-27.6c1.2,5.3,3.5,10.1,6.7,14.2L256,293.5l-79.6-67.6C179.6,221.7,182,216.9,183.1,211.7
		L183.1,211.7z M328.5,198.6l-5.2-5.2c-1.4-1.4-1.7-3.5-0.9-5.7l0.1-0.3c0.9-2.1,2.7-3.4,4.7-3.4h6.8
		C331.2,188.3,329.4,193.3,328.5,198.6L328.5,198.6z M184.7,184c2,0,3.8,1.3,4.8,3.6c0.9,2.1,0.6,4.4-0.9,5.8l-5.2,5.2
		c-0.8-5.3-2.7-10.3-5.5-14.6L184.7,184L184.7,184z M104,116.2c0-21.7,7.2-43.1,20.1-60.4C139.1,35.9,162.9,24,187.8,24
		C209,24,229,32.3,244,47.3l12,12l12-12c15-15,35-23.3,56.2-23.3c24.9,0,48.7,11.9,63.6,31.8c13,17.3,20.1,38.8,20.1,61.1
		c0,18-4.8,35.6-13.7,51.1H364c-7.4,0-14.3,2.3-20,6.1V136h-16.7c-2,0-3.8-1.3-4.8-3.6c-0.9-2.1-0.6-4.4,0.9-5.8l11.8-11.8l-34-34
		l-11.8,11.8c-1.4,1.4-3.6,1.8-6,0.8c-2.1-0.9-3.4-2.7-3.4-4.7V72h-48v16.7c0,2-1.3,3.8-3.6,4.8c-2.2,0.9-4.4,0.6-5.8-0.9
		l-11.8-11.8l-34,34l11.8,11.8c1.4,1.4,1.8,3.7,0.8,6c-0.9,2.1-2.7,3.4-4.7,3.4H168v38.1c-5.7-3.8-12.6-6.1-20-6.1h-30.3
		C108.8,152.4,104,134.8,104,116.2L104,116.2z M24,255.1c0-39.2,31.9-71.1,71.1-71.1H148c11,0,20,9,20,20s-9,20-20,20h-36
		c-13.2,0-24,10.8-24,24v22.1c0,3-1.7,5.8-4.4,7.2l-14.3,7.2c-8.2,4.1-13.3,12.3-13.3,21.5v8.6C36.1,301.5,24,279.4,24,255.1
		L24,255.1z M72,305.9c0-3,1.7-5.8,4.4-7.2l14.3-7.2c8.2-4.1,13.3-12.3,13.3-21.5V248c0-4.4,3.6-8,8-8h36c2.8,0,5.4-0.4,8-1
		l10.5,36.8l-14.5,7.2v24.5c0,11.3-9.2,20.5-20.5,20.5c-1.7,0-3.3-0.2-5-0.6l-28.6-7.2l-3.9,15.5l9.9,2.5V352H72L72,305.9z
		 M56,429.5c3.6,4.6,7.8,8.7,12.5,12.4l60,46.2H56V429.5z M168.6,484.1c-4.6,4.5-12.3,5-17.4,1.1l-72.9-56.1
		C64.3,418.5,56,401.6,56,384c0-8.8,7.2-16,16-16h38.1c21.7,11.5,36.5,31.9,40.7,55.6l-42.1-30.1l-9.3,13l61.5,43.9l39.1-39.1
		l20.7,20.7L168.6,484.1z M243.7,409L232,420.7L211.3,400l11.7-11.7c2.8-2.8,6.4-4.3,10.3-4.3c8.1,0,14.6,6.6,14.6,14.6
		C248,402.5,246.5,406.2,243.7,409z M264,398.6c0-8.1,6.6-14.6,14.6-14.6c3.9,0,7.6,1.5,10.3,4.3l11.7,11.7L280,420.7L268.3,409
		C265.5,406.2,264,402.5,264,398.6z M343.4,484.1L291.3,432l20.7-20.7l39.1,39.1l61.5-43.9l-9.3-13l-42.1,30.1
		c4.2-23.6,19-44.1,40.7-55.6H440c8.8,0,16,7.2,16,16c0,17.6-8.3,34.4-22.2,45.2l-72.9,56.1C355.8,489.2,348,488.7,343.4,484.1
		L343.4,484.1z M456,488h-72.5l60-46.2c4.7-3.6,8.8-7.8,12.5-12.4V488z M408,352v-13.8l9.9-2.5l-3.9-15.5l-28.6,7.2
		c-1.6,0.4-3.3,0.6-5,0.6c-11.3,0-20.5-9.2-20.5-20.5V283l-14.5-7.2L356,239c2.6,0.6,5.2,1,8,1h36c4.4,0,8,3.6,8,8v22.1
		c0,9.1,5.1,17.4,13.3,21.5l14.3,7.2c2.7,1.4,4.4,4.1,4.4,7.2V352L408,352z"/>
</g>
</svg>
