<svg id="Capa_1" enable-background="new 0 0 512 512" height="512" viewBox="0 0 512 512" width="512" xmlns="http://www.w3.org/2000/svg"><g><path d="m180 105c0-24.813-20.187-45-45-45s-45 20.187-45 45 20.187 45 45 45 45-20.187 45-45zm-45 15c-8.271 0-15-6.729-15-15s6.729-15 15-15 15 6.729 15 15-6.729 15-15 15z"/><path d="m135 0c-74.439 0-135 60.561-135 135s60.561 135 135 135 135-60.561 135-135-60.561-135-135-135zm-45 229.855v-4.855c0-24.813 20.187-45 45-45s45 20.187 45 45v4.855c-13.647 6.5-28.905 10.145-45 10.145s-31.353-3.645-45-10.145zm118.478-19.927c-6.996-34.157-37.284-59.928-73.478-59.928s-66.482 25.771-73.478 59.928c-19.44-19.068-31.522-45.612-31.522-74.928 0-57.897 47.103-105 105-105s105 47.103 105 105c0 29.316-12.082 55.86-31.522 74.928z"/><path d="m422 347c0-24.813-20.187-45-45-45s-45 20.187-45 45 20.187 45 45 45 45-20.187 45-45zm-45 15c-8.271 0-15-6.729-15-15s6.729-15 15-15 15 6.729 15 15-6.729 15-15 15z"/><path d="m377 242c-74.439 0-135 60.561-135 135s60.561 135 135 135 135-60.561 135-135-60.561-135-135-135zm-45 229.855v-4.855c0-24.813 20.187-45 45-45s45 20.187 45 45v4.855c-13.647 6.5-28.905 10.145-45 10.145s-31.353-3.645-45-10.145zm118.478-19.927c-6.996-34.157-37.284-59.928-73.478-59.928s-66.482 25.771-73.478 59.928c-19.44-19.068-31.522-45.612-31.522-74.928 0-57.897 47.103-105 105-105s105 47.103 105 105c0 29.316-12.082 55.86-31.522 74.928z"/><path d="m143.787 375 15 15h-53.787c-8.271 0-15-6.729-15-15v-75h-30v75c0 24.813 20.187 45 45 45h53.787l-15 15 21.213 21.213 51.213-51.213-51.213-51.213z"/><path d="m366.213 135-15-15h53.787c8.271 0 15 6.729 15 15v75h30v-75c0-24.813-20.187-45-45-45h-53.787l15-15-21.213-21.213-51.213 51.213 51.213 51.213z"/></g></svg>