<?xml version="1.0" encoding="utf-8"?>
<!-- Generator: Adobe Illustrator 23.0.1, SVG Export Plug-In . SVG Version: 6.00 Build 0)  -->
<svg version="1.1" id="Capa_1" xmlns="http://www.w3.org/2000/svg" xmlns:xlink="http://www.w3.org/1999/xlink" x="0px" y="0px"
	 viewBox="0 0 480 480" style="enable-background:new 0 0 480 480;" xml:space="preserve">
<g>
	<g>
		<path d="M440,0H280c-22.1,0-40,17.9-40,40v112c0,22.1,17.9,40,40,40h32v40c0,4.4,3.6,8,8,8c1.7,0,3.4-0.6,4.8-1.6l61.9-46.4H440
			c22.1,0,40-17.9,40-40V40C480,17.9,462.1,0,440,0z M464,152c0,13.3-10.7,24-24,24h-56c-1.7,0-3.4,0.6-4.8,1.6L328,216v-32
			c0-4.4-3.6-8-8-8h-40c-13.3,0-24-10.7-24-24V40c0-13.3,10.7-24,24-24h160c13.3,0,24,10.7,24,24V152z"/>
	</g>
</g>
<g>
	<g>
		<path d="M408,256h-67.5c-11,0-20.6,7.5-23.3,18.2l-4.9,19.6l-9.6,31.9l-5.4,18.1l-9.3-43.6c-5.6-25.8-28.4-44.1-54.7-44.3H184
			v-36.4c19.9-13.3,31.9-35.7,32-59.6v-48c0-39.7-32.3-72-72-72H72c-4.4,0-8,3.6-8,8c0.1,12.9,5.3,25.3,14.6,34.3
			C74.3,91.6,72,101.7,72,112v48c0.1,24,12.1,46.3,32,59.6V256H56c-30.9,0-56,25.1-56,56v160c0,4.4,3.6,8,8,8h224c4.4,0,8-3.6,8-8
			v-91l7.8,29.1c7.3,27.2,35.2,43.4,62.4,36.1c16.5-4.4,29.8-16.9,35.2-33.1l27.5-82.6l9-27.1c19.5-2.9,34-19.7,34.1-39.4
			C416,259.6,412.4,256,408,256z M194.2,272L176,303.9L157.8,272H194.2z M152,294.1l14.8,25.9L152,345.9V294.1z M120,256v-28.2
			c1.5,0.5,3,1,4.6,1.4c0.4,0.1,0.7,0.2,1.1,0.3c2.5,0.7,5.1,1.2,7.7,1.5c1,0.1,1.9,0.3,2.9,0.4c2,0.2,4,0.4,6.1,0.4
			c0.6,0,1.2,0.1,1.8,0.1s1.2-0.1,1.8-0.1c2,0,4-0.2,6.1-0.4c1-0.1,1.9-0.2,2.9-0.4c2.6-0.4,5.2-0.9,7.7-1.5
			c0.4-0.1,0.7-0.2,1.1-0.3c1.5-0.4,3.1-0.9,4.6-1.4V256H120z M144,56c26,0,48.6,17.9,54.5,43.2l-16.9-16.9
			c-1.5-1.5-3.5-2.3-5.7-2.3h-64c-14.5-0.1-27.2-10-31-24H144z M88,160v-48c0-7,1.3-14,3.9-20.5c1.7,0.8,3.4,1.5,5.1,2
			c0.3,0.1,0.6,0.2,1,0.3c1.8,0.6,3.7,1,5.6,1.4c0.6,0.1,1.2,0.2,1.8,0.3c2.2,0.3,4.4,0.5,6.7,0.5h60.7l27.3,27.3V160
			c0,30.9-25.1,56-56,56S88,190.9,88,160z M112,272h18.2L112,303.9L93.8,272H112z M136,294.1v51.8L121.2,320L136,294.1z
			 M330.2,408.1c-6.1,18.3-25.9,28.2-44.3,22.1c-11.2-3.7-19.7-12.8-22.7-24.2l-23.5-88.1c-1.1-4.3-5.5-6.8-9.8-5.7
			c-3.5,0.9-5.9,4.1-5.9,7.7v144H64V344H48v120H16V312c0-22.1,17.9-40,40-40h19.4l29.7,52l32,56c2.2,3.8,7.1,5.2,10.9,3
			c1.2-0.7,2.3-1.7,3-3l32-56l29.7-52h20.6c18.8,0.1,35.1,13.2,39.1,31.6l15.9,74.1c0.8,3.6,3.9,6.2,7.5,6.3c3.7,0.3,7-2.1,8-5.7
			l12.7-42.3h37.9L330.2,408.1z M359.6,320h-38.4l4.8-16h38.9L359.6,320z M376,288h-45.8l2.5-9.9c0.9-3.6,4.1-6.1,7.8-6.1h58.1
			C395.2,281.6,386.2,288,376,288z"/>
	</g>
</g>
<g>
	<g>
		<rect x="104" y="128" width="16" height="16"/>
	</g>
</g>
<g>
	<g>
		<rect x="168" y="128" width="16" height="16"/>
	</g>
</g>
<g>
	<g>
		<rect x="136" y="128" width="16" height="40"/>
	</g>
</g>
<g>
	<path d="M319.1,98.4h7.4v16.8c-2.2,1.7-4.7,3.1-7.6,4c-2.9,0.9-5.9,1.4-8.9,1.4c-4.3,0-8.2-0.9-11.6-2.8s-6.2-4.5-8.1-7.7
		c-2-3.3-3-7-3-11.2c0-4.1,1-7.9,3-11.2c2-3.3,4.7-5.9,8.2-7.7s7.4-2.8,11.7-2.8c3.5,0,6.8,0.6,9.6,1.7c2.9,1.2,5.3,2.9,7.3,5.1
		l-4.9,4.8c-3.2-3.2-7.1-4.8-11.6-4.8c-3,0-5.6,0.6-7.9,1.9c-2.3,1.2-4.1,3-5.4,5.2c-1.3,2.3-2,4.8-2,7.7c0,2.8,0.7,5.3,2,7.6
		c1.3,2.3,3.1,4,5.4,5.3c2.3,1.3,4.9,1.9,7.9,1.9c3.3,0,6.2-0.7,8.7-2.2V98.4z"/>
	<path d="M341.8,118.3c-2.6-1.4-4.7-3.4-6.1-5.9c-1.5-2.5-2.2-5.4-2.2-8.5c0-3.2,0.7-6,2.2-8.5c1.5-2.5,3.5-4.4,6.1-5.8
		c2.6-1.4,5.5-2.1,8.8-2.1c3.3,0,6.3,0.7,8.9,2.1c2.6,1.4,4.7,3.4,6.1,5.8c1.5,2.5,2.2,5.3,2.2,8.5c0,3.2-0.7,6-2.2,8.5
		c-1.5,2.5-3.5,4.5-6.1,5.9c-2.6,1.4-5.6,2.1-8.9,2.1C347.3,120.4,344.4,119.7,341.8,118.3z M357.5,111.2c1.8-1.8,2.7-4.3,2.7-7.3
		c0-3-0.9-5.4-2.7-7.3c-1.8-1.8-4.1-2.8-6.9-2.8c-2.8,0-5.1,0.9-6.8,2.8c-1.8,1.8-2.7,4.3-2.7,7.3c0,3,0.9,5.4,2.7,7.3
		c1.8,1.9,4.1,2.8,6.8,2.8C353.4,114,355.7,113,357.5,111.2z"/>
	<path d="M375,75.3h7.5V120H375V75.3z"/>
	<path d="M424,75.3V120h-7.2v-4.2c-1.2,1.5-2.8,2.7-4.6,3.4c-1.8,0.8-3.9,1.1-6.1,1.1c-3.1,0-5.9-0.7-8.4-2.1
		c-2.5-1.4-4.4-3.3-5.8-5.8c-1.4-2.5-2.1-5.4-2.1-8.7c0-3.3,0.7-6.1,2.1-8.6c1.4-2.5,3.3-4.4,5.8-5.8c2.5-1.4,5.3-2.1,8.4-2.1
		c2.1,0,4.1,0.4,5.8,1.1c1.8,0.7,3.3,1.8,4.5,3.3V75.3H424z M411.9,112.7c1.4-0.8,2.6-2,3.4-3.5c0.8-1.5,1.3-3.3,1.3-5.3
		c0-2-0.4-3.8-1.3-5.3c-0.8-1.5-2-2.7-3.4-3.5c-1.4-0.8-3.1-1.2-4.9-1.2s-3.4,0.4-4.9,1.2c-1.4,0.8-2.6,2-3.4,3.5
		c-0.8,1.5-1.3,3.3-1.3,5.3c0,2,0.4,3.8,1.3,5.3c0.8,1.5,2,2.7,3.4,3.5c1.4,0.8,3.1,1.2,4.9,1.2S410.4,113.6,411.9,112.7z"/>
</g>
</svg>
