<?xml version="1.0" encoding="utf-8"?>
<!-- Generator: Adobe Illustrator 23.0.1, SVG Export Plug-In . SVG Version: 6.00 Build 0)  -->
<svg version="1.1" id="Capa_1" xmlns="http://www.w3.org/2000/svg" xmlns:xlink="http://www.w3.org/1999/xlink" x="0px" y="0px"
	 viewBox="0 0 480 480" style="enable-background:new 0 0 480 480;" xml:space="preserve">
<g>
	<g>
		<path d="M440,0H192c-22.1,0-40,17.9-40,40v45.1c-10.3-3.4-21.1-5.1-32-5.1C62.6,79.9,16,126.4,16,183.8
			c0,35.9,18.4,69.2,48.8,88.2H40c-4.4,0-8,3.6-8,8v40H8c-4.4,0-8,3.6-8,8v48c0,4.4,3.6,8,8,8h24v32H8c-4.4,0-8,3.6-8,8v48
			c0,4.4,3.6,8,8,8h176c0.8,0,1.6-0.2,2.4-0.5c1.9,0.3,3.7,0.5,5.6,0.5h248c22.1,0,40-17.9,40-40V40C480,17.9,462.1,0,440,0z
			 M32,184c0.1-48.5,39.5-87.8,88-87.7s87.8,39.5,87.7,88c-0.1,48.4-39.3,87.6-87.7,87.7C71.4,271.9,32.1,232.6,32,184z M48,288h160
			v32H48V288z M16,368v-32h160v32H16z M176,464H16v-32h160V464z M48,416v-32h160v32H48z M464,440c0,13.3-10.7,24-24,24H192v-32h24
			c4.4,0,8-3.6,8-8v-8h240V440z M464,400H224v-24c0-4.4-3.6-8-8-8h-24v-32h24c4.4,0,8-3.6,8-8v-48c0-4.4-3.6-8-8-8h-40.7
			c0.2-0.1,0.3-0.2,0.4-0.3c3.2-2.1,6.4-4.3,9.4-6.8c0.5-0.4,1.1-0.9,1.6-1.3c2.9-2.4,5.7-5,8.3-7.7c0.4-0.5,0.9-0.9,1.3-1.4
			c2.6-2.8,5.1-5.8,7.4-8.9c0.2-0.3,0.4-0.6,0.6-0.9c2.3-3.1,4.4-6.4,6.3-9.8c0.1-0.3,0.3-0.5,0.4-0.8c1.9-3.4,3.5-6.9,5-10.5
			c0.2-0.6,0.5-1.1,0.7-1.7c1.4-3.5,2.6-7.1,3.6-10.8c0.2-0.7,0.3-1.3,0.5-2c0.9-3.7,1.7-7.5,2.2-11.3c0.1-0.5,0.1-1.1,0.2-1.6
			c0.5-4.1,0.8-8.2,0.8-12.3c0-2.5-0.1-4.9-0.3-7.4c-0.1-0.8-0.2-1.6-0.3-2.4c-0.2-1.6-0.3-3.2-0.5-4.9c-0.1-1-0.3-1.9-0.5-2.8
			c-0.2-1.4-0.5-2.9-0.8-4.3c-0.2-1-0.5-2-0.7-3c-0.3-1.4-0.7-2.7-1-4c-0.3-1-0.6-2-1-3c-0.4-1.3-0.8-2.6-1.3-3.8
			c-0.4-1-0.8-2-1.2-3c-0.5-1.2-1-2.5-1.5-3.7c-0.4-1-0.9-1.9-1.4-2.9c-0.6-1.2-1.2-2.4-1.8-3.5c-0.5-1-1.1-1.9-1.6-2.8
			c-0.7-1.1-1.3-2.3-2-3.4c-0.6-0.9-1.2-1.8-1.8-2.7c-0.7-1.1-1.5-2.2-2.2-3.2c-0.6-0.9-1.3-1.8-2-2.6c-0.8-1-1.6-2.1-2.4-3
			c-0.7-0.8-1.4-1.7-2.2-2.5c-0.9-1-1.8-1.9-2.7-2.9c-0.8-0.8-1.5-1.6-2.3-2.3c-0.9-0.9-1.9-1.8-2.9-2.7c-0.8-0.7-1.6-1.5-2.5-2.2
			c-1-0.9-2-1.7-3.1-2.5c-0.9-0.7-1.7-1.4-2.6-2c-1.1-0.8-2.2-1.5-3.3-2.3c-0.9-0.6-1.8-1.2-2.8-1.8c-1.1-0.7-2.3-1.4-3.5-2.1
			c-1-0.6-1.9-1.1-2.9-1.6c-0.4-0.2-0.7-0.4-1.1-0.6V80h296V400z M464,64H168V40c0-13.3,10.7-24,24-24h248c13.3,0,24,10.7,24,24V64z
			"/>
	</g>
</g>
<g>
	<g>
		<rect x="304" y="32" width="16" height="16"/>
	</g>
</g>
<g>
	<g>
		<path d="M296,272h-32c-4.4,0-8,3.6-8,8v88c0,4.4,3.6,8,8,8h32c4.4,0,8-3.6,8-8v-88C304,275.6,300.4,272,296,272z M288,360h-16v-72
			h16V360z"/>
	</g>
</g>
<g>
	<g>
		<path d="M360,200h-32c-4.4,0-8,3.6-8,8v160c0,4.4,3.6,8,8,8h32c4.4,0,8-3.6,8-8V208C368,203.6,364.4,200,360,200z M352,360h-16
			V216h16V360z"/>
	</g>
</g>
<g>
	<g>
		<path d="M424,120h-32c-4.4,0-8,3.6-8,8v240c0,4.4,3.6,8,8,8h32c4.4,0,8-3.6,8-8V128C432,123.6,428.4,120,424,120z M416,360h-16
			V136h16V360z"/>
	</g>
</g>
<g>
	<g>
		<path d="M360,104h-32v16h14.4l-38.8,44.3l-18-18c-3.1-3.1-8.2-3.1-11.3,0l-32,32l11.3,11.3l26.3-26.3l18.3,18.3
			c1.6,1.6,3.7,2.4,5.9,2.3c2.2-0.1,4.3-1.1,5.8-2.7l42-48V144h16v-32C368,107.6,364.4,104,360,104z"/>
	</g>
</g>
<g>
	<g>
		<path d="M48,0H32c0,17.7-14.3,32-32,32v16c17.7,0,32,14.3,32,32h16c0-17.7,14.3-32,32-32V32C62.3,32,48,17.7,48,0z M40,53.6
			c-3.5-5.4-8.1-10-13.5-13.6c5.4-3.6,9.9-8.2,13.5-13.6c3.5,5.4,8.1,10,13.5,13.6C48.1,43.6,43.5,48.2,40,53.6z"/>
	</g>
</g>
<g>
	<path d="M79.8,182.4h7.4v16.8c-2.2,1.7-4.7,3.1-7.6,4c-2.9,0.9-5.9,1.4-8.9,1.4c-4.3,0-8.2-0.9-11.6-2.8s-6.2-4.5-8.1-7.7
		c-2-3.3-3-7-3-11.2c0-4.1,1-7.9,3-11.2c2-3.3,4.7-5.9,8.2-7.7s7.4-2.8,11.7-2.8c3.5,0,6.8,0.6,9.6,1.7c2.9,1.2,5.3,2.9,7.3,5.1
		l-4.9,4.8c-3.2-3.2-7.1-4.8-11.6-4.8c-3,0-5.6,0.6-7.9,1.9c-2.3,1.2-4.1,3-5.4,5.2c-1.3,2.3-2,4.8-2,7.7c0,2.8,0.7,5.3,2,7.6
		c1.3,2.3,3.1,4,5.4,5.3c2.3,1.3,4.9,1.9,7.9,1.9c3.3,0,6.2-0.7,8.7-2.2V182.4z"/>
	<path d="M102.5,202.3c-2.6-1.4-4.7-3.4-6.1-5.9c-1.5-2.5-2.2-5.4-2.2-8.5c0-3.2,0.7-6,2.2-8.5c1.5-2.5,3.5-4.4,6.1-5.8
		c2.6-1.4,5.5-2.1,8.8-2.1c3.3,0,6.3,0.7,8.9,2.1c2.6,1.4,4.7,3.4,6.1,5.8c1.5,2.5,2.2,5.3,2.2,8.5c0,3.2-0.7,6-2.2,8.5
		c-1.5,2.5-3.5,4.5-6.1,5.9c-2.6,1.4-5.6,2.1-8.9,2.1C108.1,204.4,105.1,203.7,102.5,202.3z M118.2,195.2c1.8-1.8,2.7-4.3,2.7-7.3
		c0-3-0.9-5.4-2.7-7.3c-1.8-1.8-4.1-2.8-6.9-2.8c-2.8,0-5.1,0.9-6.8,2.8c-1.8,1.8-2.7,4.3-2.7,7.3c0,3,0.9,5.4,2.7,7.3
		c1.8,1.9,4.1,2.8,6.8,2.8C114.1,198,116.4,197,118.2,195.2z"/>
	<path d="M135.7,159.2h7.5V204h-7.5V159.2z"/>
	<path d="M184.7,159.2V204h-7.2v-4.2c-1.2,1.5-2.8,2.7-4.6,3.4c-1.8,0.8-3.9,1.1-6.1,1.1c-3.1,0-5.9-0.7-8.4-2.1
		c-2.5-1.4-4.4-3.3-5.8-5.8c-1.4-2.5-2.1-5.4-2.1-8.7c0-3.3,0.7-6.1,2.1-8.6c1.4-2.5,3.3-4.4,5.8-5.8c2.5-1.4,5.3-2.1,8.4-2.1
		c2.1,0,4.1,0.4,5.8,1.1c1.8,0.7,3.3,1.8,4.5,3.3v-16.5H184.7z M172.6,196.7c1.4-0.8,2.6-2,3.4-3.5c0.8-1.5,1.3-3.3,1.3-5.3
		c0-2-0.4-3.8-1.3-5.3c-0.8-1.5-2-2.7-3.4-3.5c-1.4-0.8-3.1-1.2-4.9-1.2s-3.4,0.4-4.9,1.2c-1.4,0.8-2.6,2-3.4,3.5
		c-0.8,1.5-1.3,3.3-1.3,5.3c0,2,0.4,3.8,1.3,5.3c0.8,1.5,2,2.7,3.4,3.5c1.4,0.8,3.1,1.2,4.9,1.2S171.1,197.5,172.6,196.7z"/>
</g>
</svg>
