<?xml version="1.0" encoding="utf-8"?>
<!-- Generator: Adobe Illustrator 23.0.1, SVG Export Plug-In . SVG Version: 6.00 Build 0)  -->
<svg version="1.1" id="Capa_1" xmlns="http://www.w3.org/2000/svg" xmlns:xlink="http://www.w3.org/1999/xlink" x="0px" y="0px"
	 viewBox="0 0 480 480" style="enable-background:new 0 0 480 480;" xml:space="preserve">
<g>
	<g>
		<path d="M32,344h16c0.1-48.6,39.4-87.9,88-88v-16C78.6,240.1,32.1,286.6,32,344z"/>
	</g>
</g>
<g>
	<g>
		<path d="M224,344c-0.1,48.6-39.4,87.9-88,88v16c57.4-0.1,103.9-46.6,104-104H224z"/>
	</g>
</g>
<g>
	<g>
		<path d="M440,0H104C81.9,0,64,17.9,64,40v188.8C0.3,268.5-19.1,352.3,20.6,416s123.5,83.1,187.2,43.4c27.8-17.3,48.4-44.1,58-75.4
			H368v-16h-25.6L330,312h110c22.1,0,40-17.9,40-40V40C480,17.9,462.1,0,440,0z M252.1,374c-13.7,52.9-61.4,89.9-116.1,90
			c-66.6,0.3-120.9-53.4-121.2-120c-0.3-66.6,53.4-120.9,120-121.2s120.9,53.4,121.2,120C256.1,353.3,254.7,363.8,252.1,374z
			 M269.8,368c0.1-0.5,0.1-1,0.2-1.5c0.5-3,0.9-5.9,1.2-8.9c0.1-1,0.2-2,0.3-3c0.3-3.6,0.5-7.1,0.5-10.6c0-3.2-0.2-6.4-0.4-9.7
			c-0.1-1-0.2-1.9-0.3-2.9c-0.2-2.4-0.5-4.7-0.9-7c-0.1-1-0.3-1.9-0.4-2.9c-0.5-3.2-1.1-6.3-1.9-9.4v0h45.4l12.4,56L269.8,368
			L269.8,368z M464,272c0,13.3-10.7,24-24,24H263.2c-0.1-0.4-0.3-0.8-0.5-1.2c-1.1-2.9-2.3-5.7-3.7-8.5c-0.2-0.4-0.3-0.8-0.5-1.2
			c-1.5-3.2-3.2-6.3-5-9.3c-0.5-0.8-1-1.7-1.6-2.5c-1.4-2.2-2.8-4.4-4.3-6.5c-0.6-0.9-1.3-1.8-2-2.8c-1.6-2.2-3.3-4.4-5-6.5
			c-0.4-0.5-0.8-1-1.2-1.5H464L464,272L464,272z M464,240H223.5c-1.3-1.1-2.6-2-3.9-3c-1.5-1.2-3-2.4-4.5-3.5
			c-1.8-1.3-3.6-2.4-5.5-3.6c-1.5-1-3.1-2-4.6-3c-1.9-1.1-3.9-2.1-5.9-3.2c-1.6-0.8-3.1-1.7-4.8-2.5c-2-1-4.2-1.8-6.2-2.7
			c-1.6-0.7-3.2-1.4-4.8-2c-2.2-0.8-4.4-1.5-6.6-2.2c-1.6-0.5-3.2-1.1-4.8-1.5c-2.3-0.6-4.7-1.1-7.1-1.6c-1.5-0.3-3.1-0.8-4.6-1
			c-2.6-0.5-5.3-0.8-8-1.1c-1.3-0.2-2.7-0.4-4-0.5c-4-0.4-8.1-0.6-12.1-0.6c-4.3,0-8.6,0.3-12.9,0.7c-0.9,0.1-1.7,0.2-2.6,0.3
			c-4.1,0.5-8.3,1.1-12.4,2c-0.7,0.2-1.5,0.4-2.2,0.5c-3.8,0.9-7.6,1.9-11.3,3.1c-0.5,0.2-1,0.3-1.6,0.5c-4,1.3-7.9,2.9-11.7,4.6
			c-0.4,0.2-0.9,0.3-1.3,0.5V40c0-13.3,10.7-24,24-24h336c13.3,0,24,10.7,24,24V240z"/>
	</g>
</g>
<g>
	<g>
		<path d="M424,48h-32v16h12.7L321,147.7l-34.5-48.3c-1.4-2-3.8-3.3-6.2-3.4c-2.5-0.1-4.9,1-6.5,2.9L208,179.4l-33.8-40.6
			c-1.5-1.9-3.9-3-6.4-2.9c-2.4,0.1-4.7,1.2-6.2,3.2l-24,32l12.8,9.6l17.9-23.9l33.5,40.2c1.5,1.8,3.8,2.9,6.2,2.9
			c2.4,0,4.6-1.1,6.2-2.9l65.4-79.9l33.9,47.5c2.6,3.6,7.6,4.4,11.2,1.9c0.4-0.3,0.7-0.5,1-0.8L416,75.3V88h16V56
			C432,51.6,428.4,48,424,48z"/>
	</g>
</g>
<g>
	<g>
		<rect x="104" y="48" width="16" height="16"/>
	</g>
</g>
<g>
	<g>
		<rect x="104" y="80" width="16" height="16"/>
	</g>
</g>
<g>
	<g>
		<rect x="104" y="112" width="16" height="16"/>
	</g>
</g>
<g>
	<g>
		<rect x="104" y="144" width="16" height="16"/>
	</g>
</g>
<g>
	<g>
		<rect x="104" y="176" width="16" height="16"/>
	</g>
</g>
<g>
	<g>
		<rect x="224" y="208" width="16" height="16"/>
	</g>
</g>
<g>
	<g>
		<rect x="256" y="208" width="16" height="16"/>
	</g>
</g>
<g>
	<g>
		<rect x="288" y="208" width="16" height="16"/>
	</g>
</g>
<g>
	<g>
		<rect x="320" y="208" width="16" height="16"/>
	</g>
</g>
<g>
	<g>
		<rect x="352" y="208" width="16" height="16"/>
	</g>
</g>
<g>
	<g>
		<rect x="384" y="208" width="16" height="16"/>
	</g>
</g>
<g>
	<g>
		<rect x="416" y="208" width="16" height="16"/>
	</g>
</g>
<g>
	<path d="M98.9,337.8h7.4v16.8c-2.2,1.7-4.7,3.1-7.6,4c-2.9,0.9-5.9,1.4-8.9,1.4c-4.3,0-8.2-0.9-11.6-2.8s-6.2-4.5-8.1-7.7
		c-2-3.3-3-7-3-11.2c0-4.1,1-7.9,3-11.2c2-3.3,4.7-5.9,8.2-7.7s7.4-2.8,11.7-2.8c3.5,0,6.8,0.6,9.6,1.7c2.9,1.2,5.3,2.9,7.3,5.1
		l-4.9,4.8c-3.2-3.2-7.1-4.8-11.6-4.8c-3,0-5.6,0.6-7.9,1.9c-2.3,1.2-4.1,3-5.4,5.2c-1.3,2.3-2,4.8-2,7.7c0,2.8,0.7,5.3,2,7.6
		c1.3,2.3,3.1,4,5.4,5.3c2.3,1.3,4.9,1.9,7.9,1.9c3.3,0,6.2-0.7,8.7-2.2V337.8z"/>
	<path d="M121.6,357.7c-2.6-1.4-4.7-3.4-6.1-5.9c-1.5-2.5-2.2-5.4-2.2-8.5c0-3.2,0.7-6,2.2-8.5c1.5-2.5,3.5-4.4,6.1-5.8
		c2.6-1.4,5.5-2.1,8.8-2.1c3.3,0,6.3,0.7,8.9,2.1c2.6,1.4,4.7,3.4,6.1,5.8c1.5,2.5,2.2,5.3,2.2,8.5c0,3.2-0.7,6-2.2,8.5
		c-1.5,2.5-3.5,4.5-6.1,5.9c-2.6,1.4-5.6,2.1-8.9,2.1C127.1,359.8,124.2,359.1,121.6,357.7z M137.3,350.6c1.8-1.8,2.7-4.3,2.7-7.3
		c0-3-0.9-5.4-2.7-7.3c-1.8-1.8-4.1-2.8-6.9-2.8c-2.8,0-5.1,0.9-6.8,2.8c-1.8,1.8-2.7,4.3-2.7,7.3c0,3,0.9,5.4,2.7,7.3
		c1.8,1.9,4.1,2.8,6.8,2.8C133.2,353.4,135.4,352.4,137.3,350.6z"/>
	<path d="M154.8,314.6h7.5v44.7h-7.5V314.6z"/>
	<path d="M203.8,314.6v44.7h-7.2v-4.2c-1.2,1.5-2.8,2.7-4.6,3.4c-1.8,0.8-3.9,1.1-6.1,1.1c-3.1,0-5.9-0.7-8.4-2.1
		c-2.5-1.4-4.4-3.3-5.8-5.8c-1.4-2.5-2.1-5.4-2.1-8.7c0-3.3,0.7-6.1,2.1-8.6c1.4-2.5,3.3-4.4,5.8-5.8c2.5-1.4,5.3-2.1,8.4-2.1
		c2.1,0,4.1,0.4,5.8,1.1c1.8,0.7,3.3,1.8,4.5,3.3v-16.5H203.8z M191.7,352.1c1.4-0.8,2.6-2,3.4-3.5c0.8-1.5,1.3-3.3,1.3-5.3
		c0-2-0.4-3.8-1.3-5.3c-0.8-1.5-2-2.7-3.4-3.5c-1.4-0.8-3.1-1.2-4.9-1.2s-3.4,0.4-4.9,1.2c-1.4,0.8-2.6,2-3.4,3.5
		c-0.8,1.5-1.3,3.3-1.3,5.3c0,2,0.4,3.8,1.3,5.3c0.8,1.5,2,2.7,3.4,3.5c1.4,0.8,3.1,1.2,4.9,1.2S190.2,352.9,191.7,352.1z"/>
</g>
</svg>
