<?xml version="1.0" encoding="utf-8"?>
<!-- Generator: Adobe Illustrator 23.0.1, SVG Export Plug-In . SVG Version: 6.00 Build 0)  -->
<svg version="1.1" id="Layer_1" xmlns="http://www.w3.org/2000/svg" xmlns:xlink="http://www.w3.org/1999/xlink" x="0px" y="0px"
	 viewBox="0 0 512 512" style="enable-background:new 0 0 512 512;" xml:space="preserve">
<path d="M478.6,501L453,415.7c-1.1-3.6-4.4-6.1-8.2-6.1h-36.3l-23.8-79.3c-1.1-3.6-4.4-6.1-8.2-6.1h-44.9l-23.8-79.3
	c-1.1-3.6-4.4-6.1-8.2-6.1h-85.4c-3.8,0-7.1,2.5-8.2,6.1l-23.8,79.3h-44.9c-3.8,0-7.1,2.5-8.2,6.1l-23.8,79.3H69.2
	c-3.8,0-7.1,2.5-8.2,6.1L35.4,501c-0.8,2.6-0.3,5.4,1.3,7.5c1.6,2.2,4.2,3.4,6.8,3.4h136.6c1.5,0,3-0.5,4.3-1.3
	c1.3,0.8,2.8,1.2,4.3,1.3h136.6c1.5,0,3-0.5,4.3-1.3c1.3,0.8,2.8,1.2,4.3,1.3h136.6c2.7,0,5.2-1.3,6.8-3.4
	C478.8,506.4,479.3,503.6,478.6,501z M390.6,409.6H277l20.5-68.3h72.7L390.6,409.6z M254.8,409.6l-20.5-68.3h45.3l-20.5,68.3H254.8z
	 M220.7,255.9h72.7l20.5,68.3H200.2L220.7,255.9z M143.8,341.3h72.7l20.5,68.3H123.3L143.8,341.3z M55.1,494.9l20.5-68.3h72.7
	l20.5,68.3H55.1z M184.4,488L166,426.6h36.8L184.4,488z M200.2,494.9l20.5-68.3h72.7l20.5,68.3H200.2z M329.5,488l-18.4-61.3h36.8
	L329.5,488z M345.3,494.9l20.5-68.3h72.7l20.5,68.3H345.3z"/>
<path d="M69.2,196.2h8.5v68.3h17.1v-76.8c0-4.5-3.4-8.2-7.9-8.5l16.4-20.5l16.4,20.5c-4.5,0.3-7.9,4.1-7.9,8.5v76.8h17.1v-68.3h8.5
	c3.3,0,6.3-1.9,7.7-4.8c1.4-3,1-6.5-1-9L110,139.6c-1.7-1.9-4.1-3-6.7-3c-2.6,0-5,1.1-6.7,3l-34.1,42.7c-2.1,2.6-2.5,6.1-1,9
	C62.9,194.3,65.9,196.2,69.2,196.2z"/>
<path d="M77.7,281.5h17.1v17.1H77.7V281.5z"/>
<path d="M111.9,281.5h17.1v34.1h-17.1V281.5z"/>
<path d="M222.8,59.6h8.5v76.8h17.1V51.1c0-4.5-3.4-8.2-7.9-8.5L257,22l16.4,20.5c-4.5,0.3-7.9,4.1-7.9,8.5v76.8h17.1V59.6h8.5
	c3.3,0,6.3-1.9,7.7-4.8c1.4-3,1-6.5-1-9L263.6,3c-1.7-1.9-4.1-3-6.7-3c-2.6,0-5,1.1-6.7,3l-34.1,42.7c-2.1,2.6-2.5,6.1-1,9
	C216.6,57.7,219.6,59.6,222.8,59.6z"/>
<path d="M265.5,144.9h17.1V162h-17.1V144.9z"/>
<path d="M265.5,179.1h17.1v17.1h-17.1V179.1z"/>
<path d="M231.4,153.5h17.1v34.1h-17.1V153.5z"/>
<path d="M376.5,144.9h8.5v68.3h17.1v-76.8c0-4.5-3.4-8.2-7.9-8.5l16.4-20.5l16.4,20.5c-4.5,0.3-7.9,4.1-7.9,8.5v76.8h17.1v-68.3h8.5
	c3.3,0,6.3-1.9,7.7-4.8c1.4-3,1-6.5-1-9l-34.1-42.7c-1.7-1.9-4.1-3-6.7-3c-2.6,0-5,1.1-6.7,3l-34.1,42.7c-2.1,2.6-2.5,6.1-1,9
	S373.2,144.9,376.5,144.9z"/>
<path d="M385,230.3h17.1v17.1H385V230.3z"/>
<path d="M385,264.5h17.1v17.1H385V264.5z"/>
<path d="M419.2,281.5h17.1v17.1h-17.1V281.5z"/>
<path d="M419.2,230.3h17.1v34.1h-17.1V230.3z"/>
<path d="M231.4,204.7h17.1v17.1h-17.1V204.7z"/>
</svg>
