<svg xmlns="http://www.w3.org/2000/svg" viewBox="0 0 685.7 468.89"><defs><style>.cls-1{opacity:0.08;}.cls-2{fill:#fff;fill-rule:evenodd;}</style></defs><title>Asset 4</title><g id="Layer_2" data-name="Layer 2"><g id="Layer_1-2" data-name="Layer 1"><g class="cls-1"><path class="cls-2" d="M357.48,41.14A82.87,82.87,0,0,1,378,44l1.83.39c.78.13,1.57.39,2.48.52a17.71,17.71,0,0,1,2.22.52l2.22.39c.78.26,1.57.39,2.35.65a12.16,12.16,0,0,1,2.09.52c.91.26,1.7.39,2.61.65l1.83.52c.91.26,1.83.52,2.87.78l1.44.52c1,.26,2.09.65,3,.91l1,.39.52.13c.91.39,1.83.65,2.74,1l.52.13.65.26h.13c1.17.39,2.35.92,3.52,1.31h.13l.52.26h.13a4.69,4.69,0,0,0,1.18.52A119.91,119.91,0,0,1,427,60.08c.52.26.91.52,1.44.78h.13a11.84,11.84,0,0,0,1.83.91l.13.13c.65.39,1.44.65,2.09,1s1.31.65,2.09,1l2,1.18c.65.39,1.3.65,2,1l2,1.17c.78.39,1.43.79,2.09,1.18l2,1.18c.65.39,1.3.91,2,1.3a21.44,21.44,0,0,1,2.22,1.44l1.3.79.39.26A19.54,19.54,0,0,0,452.56,75l.39.26.91.65.26.13c.78.65,1.57,1.17,2.35,1.83h.13l.26.13.92.65c.91.79,2,1.57,3,2.35l.52.39c.92.65,1.83,1.44,2.74,2.09l.52.52c1.17.92,2.22,1.83,3.4,2.74l.78.79a19,19,0,0,1,2.48,2.09l.78.65c.79.78,1.7,1.57,2.48,2.22l.65.65c.91.92,2,1.83,2.88,2.74l1,1c.78.66,1.43,1.44,2.09,2.09l1.18,1.17a25.31,25.31,0,0,0,1.83,2c.52.52,1,1.17,1.57,1.7a22.85,22.85,0,0,1,1.7,2c.52.52.91,1,1.43,1.57s1,1.17,1.57,1.7c.52.78,1.17,1.44,1.7,2.09l1,1.31c.65.78,1.17,1.57,1.83,2.22a18.8,18.8,0,0,0,1.31,1.7,25.07,25.07,0,0,0,1.7,2.22,9.78,9.78,0,0,0,1,1.44,30.52,30.52,0,0,0,1.83,2.48l.65,1c.66.91,1.31,2,2,2.87l.91,1.17c.52,1,1.17,2,1.83,3l.65.91c.52,1,1.17,2,1.83,3l.52.91c.65,1.18,1.3,2.35,2.09,3.53l.39.78c.52,1,1.17,2.09,1.83,3.27l.39.78c.65,1.17,1.17,2.35,1.83,3.66l.26.39c.66,1.31,1.31,2.61,1.83,3.92l.39.65.65,1.57H166.79c2.61-5.61,5.35-11,8.49-16.33,2.35-4,4.83-8,7.44-11.89A112,112,0,0,1,191.34,114l.39-.52h0l.65-.79.13-.13.26-.39.39-.52.39-.39.39-.52.4-.39.65-.91.39-.39.13-.13.65-.79.39-.39.39-.52.52-.66.26-.13.39-.52h0l.65-.78h.13l.39-.52.26-.39.39-.39.39-.52.52-.39h0l.78-.78.39-.52.13-.13.65-.78.78-.65.4-.52.39-.39.65-.65.52-.39.91-1,.52-.52.78-.78.65-.65h.13l.39-.39.39-.52.39-.39.52-.39.39-.39.78-.65v-.13l.52-.39.39-.39.39-.39.52-.39.4-.39h0l.78-.65.13-.13.39-.39.39-.39.39-.26.91-.78.52-.52a82.64,82.64,0,0,1,16.33-12.67l.13.13.52-.39.78-.52,1.17-.78h.13l.26-.26,1.17-.78.66-.39,1.17-.65.13-.13.26-.13,1.3-.91h.13l.26-.13,1.31-.91.26-.13h.13a14.35,14.35,0,0,1,1.44-.92l.39-.26,1.3-.65.52-.39,1.31-.65.39-.26,1.44-.79.26-.13,1.44-.78.52-.26,1.31-.78.39-.13,1.44-.78.39-.13,1.44-.78.4-.13,1.57-.78.26-.13,1.57-.78h.26l1.57-.78.39-.13,1.57-.78h.26c.52-.26,1.18-.52,1.7-.78H267l1.57-.78.52-.13,1.57-.65.13-.13a10.41,10.41,0,0,0,1.83-.65h.13l.26-.13,1.57-.52.13-.13.26-.13c.52-.13,1-.39,1.57-.52l.13-.13h.26c.53-.26,1.18-.39,1.7-.65h0c.65-.26,1.17-.39,1.83-.65h.13l.26-.13c.52-.13,1.17-.39,1.7-.52h.13l.13-.13a8.3,8.3,0,0,0,1.7-.52h.26l1.57-.52.52-.13c1.31-.39,2.48-.78,3.79-1.18h.13a10.91,10.91,0,0,1,2-.52c1.7-.52,3.26-.91,4.83-1.3h.13c1.57-.39,3.13-.78,4.7-1h.13c1.57-.39,3.13-.65,4.83-1h0l4.7-.79h.13l4.7-.78h.26c1.57-.13,3-.39,4.57-.52H322c1.44-.26,3-.39,4.44-.52h.52c1.44-.13,2.87-.26,4.31-.26l.52-.13c1.31,0,2.74-.13,4.18-.13h.65c1.44-.13,2.74-.13,4.18-.13h5.49a39.13,39.13,0,0,1,3.91.13h.92c1.3.13,2.48.13,3.78.26h1l1.57.13ZM518.91,315c-2.09,4.57-4.44,9.14-6.92,13.58h0c-.39.65-.65,1.31-1,1.83v.13l-.39.65-.65,1-.13.13a12.9,12.9,0,0,1-1,1.83h0a193.32,193.32,0,0,1-249.33,74.84h0c-4.57-2.09-9-4.44-13.32-6.92A193.89,193.89,0,0,1,166.79,315H518.91Zm-349.12,1.83h3.14a100.9,100.9,0,0,0,5,15.41c-2.87-5-5.62-10.05-8.1-15.41Zm5.1,0h2.22a124.3,124.3,0,0,0,42.19,32.26c4.31,20.77,12.54,38.27,25.47,50A191.29,191.29,0,0,1,191,351.47c-2.09-2.88-4.05-5.88-5.88-8.88a101.66,101.66,0,0,1-10.19-25.73Zm4.7,0h36c.13,4.05.39,8,.65,11.89.65,6.27,1.44,12.28,2.48,18.16a124.26,124.26,0,0,1-39.18-30Zm37.87,0h64.39l.52.26c1.17,12,2.74,23.51,4.57,34.22.78,4.44,1.7,8.88,2.48,13.06C268.66,363,247.5,358.92,228,350.95a57.67,57.67,0,0,1-7.05-3.13,148.76,148.76,0,0,1-2.75-19.2c-.39-3.92-.65-7.71-.78-11.76Zm71.71,0h6.92l6.92,5.22,5.75,5.49-.39,4.18s5.75,4.7,10.32,6.53a89.94,89.94,0,0,0,15.67,4c2.09.39,11,1.44,11,1.44s8.23-4.18,10.58-3.53S366.23,344,366.23,344l5.09.39,3.4,12.41a285.46,285.46,0,0,1-83.33,7.7c-.91-4.31-1.7-8.88-2.61-13.46-1.7-10.45-3.27-21.55-4.44-33.17h0l4.7,5.22,2-4.31Zm47.8,0h27l2.48,9.41a10,10,0,0,1-3.14,3.79c-2.74,1.57-8.88,2.48-13.71,1.7s-11.49-10.32-11.49-10.32Zm29,0h3.39L367.14,318l.52,5.48v.13Zm14.5,0H450.6l.26.79-.65,2-1.43-.65a11.5,11.5,0,0,0-2.88-.13c-1.57.26-4.31,5.88-4.31,5.88l-2.74,1.83s-2.75,3.79-4.57,5.09a1.52,1.52,0,0,0-.65.92,291.85,291.85,0,0,1-26.52,13.06l-2.48-.65-2.35-10.45-1-4.31s-5.62-.91-8.49-.39-12.4,4.7-12.4,4.7l.26-2.35.26-4.71-.78-8.49ZM511.34,152h-17a84.11,84.11,0,0,0-2.74-21.94,97.91,97.91,0,0,0-3.91-11.36,158.59,158.59,0,0,1,16.59,17.11l1.43,5.88Zm-18.81,0h-7.84a247.87,247.87,0,0,0-23-18.81,65.65,65.65,0,0,0,1.18-28.47c-.26-1.44-.65-2.74-.92-4.18a168.88,168.88,0,0,1,22.34,15.28,84.09,84.09,0,0,1,5.49,14.76A80.23,80.23,0,0,1,492.53,152Zm-10.58,0H454.39a75.94,75.94,0,0,0,5-11.1c.65-2,1.3-3.79,1.83-5.75,7.19,5.35,14.24,11,20.77,16.85Zm-29.64,0H422.39c-5-4.7-9.93-9.27-14.76-13.45,8-8.23,14.11-17.11,17.5-26A307.75,307.75,0,0,1,459.62,134c-.52,2.09-1.31,4.18-2,6.27A86.5,86.5,0,0,1,452.3,152Zm-32.52,0h-8.23l-1.57-1.7s-3-3-3.27-2.87-3.66.53-3.92.53a17.06,17.06,0,0,1-2.22-2.61c2-1.83,3.92-3.66,5.75-5.49,4.44,3.79,8.88,7.84,13.45,12.15Zm-70,0H321.69l-1.83-6.92.78-2.61,2.09-4.44,1-.26-.26,6.27,2.74-1.17,2.35,1.17,2.48-3.53,5.75.26.52-3-4.44.52-2.61-1.83-1.57-.39c3.4-1.18,6.66-2.48,9.8-3.79l-.39.92,3.53,2,3.39-3.13,3.92.78c1.17,1.7,2.35,3.27,3.53,4.83l-.26-.13-1.83,2.35-6.53,1.44,5,7.05Zm-29.91,0H317l1.83-3.66Zm-114.15,0h-7.32a45.33,45.33,0,0,1-1.83-4.44l6.14-6.53c.65,1.17,1.31,2.22,1.31,2.22l-2.09,4.83,2.61,2.09Zm-9.4,0h-3.53c.78-.91,1.57-1.83,2.48-2.87a18.73,18.73,0,0,0,1,2.87Zm-6,0H173.84c.39-2.22,1-4.57,1.7-6.92.26-.52.39-1.17.65-1.83a127.89,127.89,0,0,1,17.89-17.76,43.46,43.46,0,0,0,.39,21.68c-1.44,1.57-2.75,3.13-4.18,4.83Zm-18.42,0h-1.44c.26-.65.52-1.17.78-1.83a29.89,29.89,0,0,1,1.7-2.61c-.39,1.57-.78,3-1,4.44ZM455.83,389.35l2.48-3.66s-11,4.18-16.59,4.44S430,384.38,430,384.38l-5,.65-3.14-3.39,2.75-5.09L422,373.81l1-5.36,3.66-3.27s4.83-7.44,5.62-11.75-3-5.75-3.65-6.79-5.09-2.61-5.09-2.61l-3.27,2.74,1.7,1.7-1.44,2.48-7.32.26-4.7.79-7.06-1-5,.91c-3,1.18-6.14,2.35-9,3.27q-5.49,1.77-10.58,3.14l16.45,61.12a188.27,188.27,0,0,0,62.43-30Zm-60-39.18-.26-1.83-8.1-4.18-6.92.91-7.19-.39h-.13l3.27,11.75c3.27-.91,6.79-2,10.32-3.13q4.51-1.37,9-3.14ZM201.79,139.36c0-.26-.13-.52,0-.52,0-.26.78-.65,1.83-1.18,3.66-3.79,7.45-7.31,11.37-10.71l-.13-.26,2.48-4.18,3-.78.26.52c1.3-1.18,2.61-2.22,3.92-3.27a15.35,15.35,0,0,1-.78-2.61,27.16,27.16,0,0,1-.92-8.62l-3,6.66-2.74,5L211.59,122l2.61-7.44-2.61-1.44-6,6.92-.39-3c-3,2.22-5.88,4.31-8.62,6.53l-.13.26A43.59,43.59,0,0,0,196,145.5c1.83-2.09,3.79-4.18,5.75-6.14Zm9.93-6.92,3.27.78,2.74-3.66-1.3-1.3c-1.57,1.3-3.14,2.74-4.7,4.18Zm9.4-8.23.52,2,1.57-3.79c-.65.65-1.44,1.18-2.09,1.83Zm4.57-7.57.52-1,3.92-.91a287.69,287.69,0,0,1,29.52-19.46,16.47,16.47,0,0,1-.78-2.35,12.11,12.11,0,0,1-.52-3.79,255.43,255.43,0,0,0-33.18,15.54,23.93,23.93,0,0,0,.39,11.36,5.7,5.7,0,0,1,.13.66Zm8.36-2.48,4.31.13,4.44,6.92,2.09,1a277.23,277.23,0,0,1,20.64-20.51,17.93,17.93,0,0,1-5-5,263.71,263.71,0,0,0-26.51,17.37Zm12.54,9h.26l3.27,5,7.71-1.83,5.09-.26,1.57,1.18c.52-1,1.17-2.09,1.7-3.13s1.18-2.09,1.83-3.14v-.13l.39-.52,2.74-4.7.52-3.13,1.7-.39c1-1.7,2.09-3.4,3.13-5l-.52-.26.91-.65c-.26,0-.52-.13-.78-.13a32.32,32.32,0,0,1-8.88-3.4,278.38,278.38,0,0,0-20.63,20.5Zm19.33,5.23H266l7.71,3.13,3.4,1.43-.53,2.48,6.79.92,2.09-2.48.78.91c.26-1.57.52-3,.79-4.57l-5.88,2.22-6-4,.65-2.75-1.57-4.83-4.57,4.31-.78-2-1,1.83c-.66,1-1.31,2.22-2,3.4Zm21.95,8.49.39.52.39-5,2.88.26s5,2,5.35,1.83,6.27-3.13,6.27-3.13l3.79,2,1.44-6.66-4.18-.92-1-4,2.22-3.4,4.83,3.92,1.18,2,1.7,2.87-4-15.41-1.44,3.26-2.61,2-2.09-4.31L305,111l3.66-.78-.52-1.83-.52.13-3.79-2.87c-1,.13-2.22.39-3.27.52l.13.13-.65,3.53-2.74.39-3.14-2.09.39-1.17-1,.13c-.78,3.26-1.44,6.66-2.09,10.06l2-1.44-.26,6.14,5.75,4.57-4.31,4-5.48-.65c-.39,2.35-.78,4.57-1.17,7.05Zm26.77-11.23.39-.52,2.75,1.31.78,3.92,2.35.92,1.83-7.19-2.62-3.79h-6l1.44-2.35-3.13-.65ZM311.51,114v-.79l3.13-4,2.09,1,5.22-3.66,5,1.7h2.22l-4.31-5.09-3.13-3.53a91.17,91.17,0,0,1-12.67,4.7v.26l.78.26,4.31-.65,3.27-2.09,2.35,2.61-9.79,3.13Zm20-5.88h1s7.57,1.31,8,1,3.27,1.7,3.27,1.7l.13,3,6.66-.52,5.88,1,4,.39v3a81.26,81.26,0,0,0,7.18-5.75c-9.93-6-19.2-11.36-27.56-15.8-2.09-1-4-2.09-6-3.13l-4.7,2.22a65.78,65.78,0,0,1-6,3.4c.91,1,1.83,2.09,2.87,3.27,1.7,2,3.52,4,5.22,6.14ZM360.61,120v2.35l-2.48-.65c-1,.65-2.09,1.31-3.27,2.09l3,.91,4.31.91,2.62,3-5.88.65,5.35,2.35s-.13,1.83-.39,2H352.65l-.91-.13c1.3,1.7,2.61,3.4,3.79,5l2.35.78,3.53-1.44,5.35,7.71,7.18.26.39-2.09-2.61-7.05,8,4.57,7.44.91-1.7,3.66,5.22.13,7.05-.65a87.42,87.42,0,0,0,7.18-6.53,243.06,243.06,0,0,0-23.12-17.63c-4.18-2.74-8.36-5.35-12.41-8-2.74,2.35-5.62,4.7-8.75,6.92Zm-4.7.91-3.27-1,.26,2.87c1-.52,2-1.18,3-1.83Zm-12.15,6.79-2.09-1.83.65-1.7-3.53-4.31-10.71-4.18-.13,3.4-3.4,1.7,3.14,4.7,2.87,3.66-2.61,3-1.17,2.61a154.07,154.07,0,0,0,17-7.05Zm-.78-5.62.26-.52-.91-.26ZM323.91,135.7v-.26l-.13.39ZM410,346.38l1.3.39s7.58-4,10.84-4.7a36.14,36.14,0,0,1,8.23.13s3-3,3.53-5.1a4.39,4.39,0,0,0-.13-2.61A236.62,236.62,0,0,1,410,346.38ZM329.79,54.59l5.88-.39L340,52.9,346.64,55c4.44-1.44,9.14-2.74,14.24-4A60.52,60.52,0,0,0,354,49a77.31,77.31,0,0,0-11.23-2,97.26,97.26,0,0,0-16.19,9,1,1,0,0,0-.52.26l1.57.39A51.48,51.48,0,0,1,334.75,59l.65-.26-2.22-.39-4.57-2ZM343,58.12,339.84,60l-1.17-.39-1.7.65a18.76,18.76,0,0,1,5.36,4.7,261.05,261.05,0,0,1,35.39-4A45,45,0,0,0,364,52.11c-7.83,1.83-14.76,3.92-21,6ZM331.75,66l-.39,1.17c-8.88,2-16.33,4-21.94,5.75a181.62,181.62,0,0,1,25.21-11.76,18.48,18.48,0,0,1,5.62,4.18c-2.48.39-4.83.91-7.05,1.44Zm-1,3.13-.13.52-2.87,1.57-5.09.52-.39,1.83c-4.44.26-8.49.65-12.41,1.18,5.36-1.7,12.54-3.66,20.9-5.62ZM322,75.36l-.39,2.48c-4.57-.52-8.62-.92-11.89-1.31,3.79-.39,7.84-.78,12.28-1.17Zm-.65,4.31-.13.52-.53,4.18c-1.44-.65-2.74-1.31-4-1.83v-1l-4.31-1v.13c-2.09-.91-4-1.7-5.62-2.35,3.65.26,8.62.65,14.63,1.44Zm1.17,7.71-2.75,5.36,6.14-.26.91,2.22a40.91,40.91,0,0,1-4.7,2.61c-2-2.22-3.79-4.31-5.62-6.27l-.79-2.74,1-2-.13-1.7q2.74,1.17,5.88,2.74Zm26.9,11.89L353,96.91l5.88.92-4.05,3,4.31,2.48,3.92-2.22,2.48,1.83-.39,4,4.7,3.13-.79.65c-6.92-4.18-13.45-8.1-19.72-11.49Zm22.08,11.88.65.39,6.14-.65,13.85,6.27,3.27-2.22s4.44-.78,4.57-.26,2.48-1.57,2.48-1.57-9.53-6.4-9.53-7.05a41.18,41.18,0,0,0-.26-4.57l-5.88-1.3-2-3.92.78-1.3c4.05,1.44,8.09,3,12.28,4.7a278.61,278.61,0,0,1,25.6,12c-3.26,8.75-9.27,17.5-17.24,25.73a226,226,0,0,0-23.38-17.76c-4-2.74-8.09-5.36-12-7.84l.65-.65Zm14.89-17.89-1-1.18a30.45,30.45,0,0,0,2.48-15c1.44.26,2.88.39,4.18.65l.52,1.17-.91,4.18,4-.13,7.57-.39V81.11l-1.3-1.7a200.93,200.93,0,0,1,24,5.88A38.21,38.21,0,0,1,427,94a47.77,47.77,0,0,1-2.87,15.8c-8.62-4.44-17.11-8.49-25.6-12-4-1.7-8.23-3.13-12.15-4.57Zm-2.48-2.61-3.26-3.4-1.3-8-4.18-3.66L386,76.8a28.51,28.51,0,0,1-2.09,13.85Zm-14.5-15.41-5.62.78L363,74.84l6.4.39Zm-7.7-2.35-.39-.65L354.6,70.4l-5,2.09L347.81,69l-3,.79a13.19,13.19,0,0,0-1.31-3.14,269.34,269.34,0,0,1,35.92-4,24.8,24.8,0,0,1,5.75,10.58,7.51,7.51,0,0,1,.52,1.83c-8.23-1-16.2-1.7-24-2.09ZM343,70.27l-2.22.52L335.67,68l5.88-1.18a11.09,11.09,0,0,1,1.44,3.4Zm-33.7,11.1a1.36,1.36,0,0,0-1.3.91c-.91-.91-1.83-1.83-2.75-2.61,1.18.39,2.62,1,4.05,1.7Zm-2.35,2.48a12,12,0,0,1-2.88,2.35l-1.83-6.79c1.44,1.3,3,2.74,4.7,4.44Zm-4.44,3.79c-1,1-2.48,2.87-2.48,2.87L300.4,95l5.09,3.53,1.18,4.57-.79.13-2-1.31-2.74-4.44-4.7-2.09h-.26c1.44-5.48,2.88-10.58,4.31-15.15Zm4.7,10.06.91-1.18,1.44,1.18-1.3,2.48a5,5,0,0,0-.13,1Zm1.3,4.7H309l-.52.13Zm7.31-2.35,2.09-3.92-.26-1c.91,1,1.83,2,2.74,3a47,47,0,0,1-4.57,2Zm-14.36,11.89,1.7,6-3,2.74-3.78-2.35-.14-4.7ZM289,119l-1.44,1-5.22-3-6.53-5.49c.78-1.17,1.44-2.35,2.22-3.53l.78.52,3.13-.91-1,3.53,6.27,2,3.52-2.22c-.52,2.61-1.17,5.22-1.7,8.1Zm-2.75-18.55L288.39,98l2.87.92-1.57,3.79-3.13.52Zm-.13,7.84,1.57-.91a17.67,17.67,0,0,0-2.61-.13Zm2.75-2.87.13-.65,1,.65a8.13,8.13,0,0,0,1.83-.13c.65-2.35,1.17-4.83,1.7-7.05l-3-2.22.78-1.44,3,.52c1.3-5.22,2.74-10.06,4-14.5a257.51,257.51,0,0,0-17.24,22.73l.92-.52,3,.78-.65,1.7c1.44.13,2.88.13,4.44.13Zm10.06-.78-1-1.18-2.75,1.44-.13.26h-1.17c.52-2,.91-3.92,1.44-5.75l1.17.78,2.75-.52.91,3,1.7,1.44c-.92.13-2,.39-2.87.52Zm204.27,27.17-.13-.52-7.45-8.62-7.05-12.15-1.3,1.44-3.4-1.83-.91-.91c1,1.83,2,3.66,2.87,5.49a152.85,152.85,0,0,1,17.37,17.11Zm-24.82-26.25-3.79-3.13L469.41,100l-2.88-3.53L465.1,89.6l-6.4-5.09-4.18-.92-.13.26a56.8,56.8,0,0,1,6.79,14.24,145.17,145.17,0,0,1,21,13.72c-1.18-2.09-2.35-4.18-3.79-6.27Zm-25.21-20-.53.78-1.83-2.74-4-3.92L448,82.42l-.26,1.7-4-4-2,.52,3.4,5.09-1.83,1-3.92-2.48L437,83.72,431.4,80.2l-.52-3.27s-4-1-6.79-1.57a37.17,37.17,0,0,1,3.39,8.49c2.49.79,5,1.57,7.45,2.48a193.08,193.08,0,0,1,23.9,10.45,53.17,53.17,0,0,0-5.62-11.23ZM421.61,74.84h0a29.63,29.63,0,0,1-3.66-2.61l-2.35-3.79,2,.65a43.45,43.45,0,0,0-3.26-3.66,7.49,7.49,0,0,0-1-.92,150.3,150.3,0,0,0-21.68-2c-3.27-.13-6.53-.13-9.66,0A27.18,27.18,0,0,1,387,72.62a21,21,0,0,1,.52,2.48c1.3.26,2.48.39,3.66.52l-.39-.91,3.66-1.31L399,75.75l1,1.44a220.72,220.72,0,0,1,25.21,6,31.87,31.87,0,0,0-3.66-8.36ZM420,69.09l.91-.78,5.62,3,8.36-.91-2-1.31a116.45,116.45,0,0,0-16.46-4,33.91,33.91,0,0,1,3.53,4Zm8.36-3.26-3-3.4L418.48,62l-3-1.57s-5.36-2.35-6-2.09q-.2,0,0,.39,2.54,2,4.7,3.92a125.2,125.2,0,0,1,14.24,3.14Zm-25.6-4.57-4.7-2.74-7.31-2.61L377.46,52l-1.7,2-8.49-2.61-.26.13a41.86,41.86,0,0,1,13.19,9.27c3.78-.13,7.57-.13,11.49,0,3.66,0,7.45.26,11.1.52ZM354.47,47.15l-1-3.4h-2.61c-1.57.52-3.27,1-4.83,1.7,2.87.52,5.75,1,8.36,1.7Zm-8.62-3.66H335.14l-2.35.91c3.27.13,6.53.26,9.54.65l3.53-1.57Zm-21,2.87-5.22,1.17h-1.83a57.61,57.61,0,0,0-6.14,8,57.75,57.75,0,0,1,11.75.39,20,20,0,0,1,2.09-1.44,115,115,0,0,1,13.59-7.84,127.93,127.93,0,0,0-14.24-.26Zm-9.67,1.3-4.83.13a146.07,146.07,0,0,0-15.67,3.27l1.83,6.79a97.71,97.71,0,0,1,12.8-2.22l.13-.13a75.9,75.9,0,0,1,5.75-7.84Zm2.35-2.61.39-.13c.13-.26.39-.39.65-.65l-8.49,1.44-2.22.65a86,86,0,0,1,9.66-1.31Zm-27.82,7.31-5.75,2.88,9.8.13-3.66,2.48L280,57.73l-5.09,1h-1.17c1.44.65,3,1.31,4.57,2.09,1.3.65,2.61,1.31,3.92,2.09a77.6,77.6,0,0,1,12.41-4.57l-1.83-6.92a28.55,28.55,0,0,1-3.14.91ZM253.12,67l-2.22,1-2.48,1.83h.52c1.44-.92,2.74-2,4.18-2.87Zm2.74,4.44-8.49,6,2-3.79-2.61.26c-1.31,1-2.61,2.09-3.78,3.13l-1.31,2.61-1.83.39c-1.44,1.31-2.75,2.74-4.05,4.18,6.4-1.7,12.8-3.27,19.2-4.44,2.48-.52,5-.92,7.32-1.44a37.73,37.73,0,0,1,5-5.48l1.18-1.18h-.65c-4.18-.26-8.23-.39-11.89-.26ZM229.87,88l-3,3-2.74,7.05.78.13a48.66,48.66,0,0,1,5.75-10.45Zm-3,10.45.13.13-.91,2.09c-.13.52-.26.91-.39,1.44A259.25,259.25,0,0,1,258.61,87a16,16,0,0,1,2.35-6.4c-1.83.26-3.79.65-5.62,1a218.53,218.53,0,0,0-21.68,5.22,46.59,46.59,0,0,0-6.79,11.63Zm-24.16,18-2.48-.13.39-3.53a77,77,0,0,0-3.14,7.58c1.7-1.31,3.4-2.61,5.22-3.92ZM199,111.8,194,116.37l-3.13,1.44c-2.35,3-4.57,6-6.66,9.14a76.12,76.12,0,0,0-5.88,11.1,126.57,126.57,0,0,1,16.59-15.54A67.32,67.32,0,0,1,199,111.8ZM375.11,358.66a284.35,284.35,0,0,1-83.33,7.7c7.05,31.87,17.24,54.47,30.82,58.78a193.77,193.77,0,0,0,69-5.22ZM290,366.23c-21.16-1.31-42.84-5.36-62.69-13.58-2-.79-3.91-1.57-5.88-2.48,5.75,26.39,18,47,38.53,57.08A192.39,192.39,0,0,0,317,424.48c-11.76-8-20.77-29.52-27-58.25ZM270.36,59.69a120.61,120.61,0,0,0-17.76,9.93,152.25,152.25,0,0,1,15.28.26c.91,0,1.83.13,2.61.13a59.39,59.39,0,0,1,9.8-6,27.84,27.84,0,0,0-2.74-1.44,34.43,34.43,0,0,0-7.19-2.87Zm56.82-1.17a26.08,26.08,0,0,0-3.4-.66A148,148,0,0,0,306,72.62a199.29,199.29,0,0,1,26.12-12.54,24.45,24.45,0,0,0-5-1.57Zm-6.14-1a73.38,73.38,0,0,0-10.71,0A100.27,100.27,0,0,0,302.88,73,157.49,157.49,0,0,1,321,57.47Zm-12.93.26a86.59,86.59,0,0,0-11.1,2l3.65,14a99.21,99.21,0,0,1,7.45-15.94Zm-12.93,2.48a67.78,67.78,0,0,0-11,3.92A134.06,134.06,0,0,1,299,74.32ZM282.25,65a63.23,63.23,0,0,0-8.88,5.22,140.65,140.65,0,0,1,22.46,3.92c-4.31-3.13-9-6.4-13.58-9.14ZM271.14,72c-.91.79-1.83,1.44-2.74,2.22A46.73,46.73,0,0,0,264.88,78a206.13,206.13,0,0,1,28.87-2.35A131.62,131.62,0,0,0,271.14,72Zm-7.83,8.23a20.4,20.4,0,0,0-2.75,6,237.16,237.16,0,0,1,30.69-8.75,197.18,197.18,0,0,0-27.95,2.75Zm-3,8.23a13.25,13.25,0,0,0,.26,3.92l.78,2a255.28,255.28,0,0,1,30.7-15,188.19,188.19,0,0,0-31.74,9.14Zm2,7.44a15.71,15.71,0,0,0,4.7,4.57c5.23-4.7,10.45-8.88,15.68-12.8,2.74-2.09,5.62-4,8.36-6a293.27,293.27,0,0,0-28.73,14.24Zm6.4,5.48a30.59,30.59,0,0,0,7.83,2.88,6.65,6.65,0,0,0,1.7.26,255.76,255.76,0,0,1,17.63-23.77c-4,2.61-8.1,5.35-12.14,8.36-5,3.79-10.06,7.84-15,12.28Zm157.12,9.41A339.24,339.24,0,0,1,460.14,132a64.61,64.61,0,0,0,.91-26.91c-.39-2-.91-3.92-1.44-5.88a173.38,173.38,0,0,0-25.34-11.1c-2.09-.78-4.18-1.57-6.4-2.22a33.27,33.27,0,0,1,.92,8.1,50.42,50.42,0,0,1-3,16.72Z"/><path class="cls-2" d="M233.53,45.06C337.89-15.28,472,20.64,532.37,125.13c2.48,4.31,4.83,8.75,6.92,13.19L685.7,154H529.23a225,225,0,0,0-10.58-21c-56-97-180.24-130.35-277.29-74.31A202.23,202.23,0,0,0,156.47,154H0l146.41-15.67a217.52,217.52,0,0,1,87.12-93.26Z"/><path class="cls-2" d="M631.5,141.84l-87.25-11.36c-1.7-3.13-3.39-6.27-5.09-9.27a226.64,226.64,0,0,0-392.61,0c-1.7,3-3.4,6.14-5,9.27L54.2,141.84l82.55-19.33c1-1.7,2-3.53,3-5.35a234.62,234.62,0,0,1,406.2,0c1,1.83,2.09,3.65,3,5.35Z"/><path class="cls-2" d="M0,315,146.41,330.7c2.09,4.44,4.44,8.75,7.05,13.19C213.68,448.38,347.81,484.3,452.3,424a217.93,217.93,0,0,0,87-93.25L685.7,315H529.23a202.54,202.54,0,0,1-84.89,95.22c-97,56-221.26,22.85-277.29-74.32A223.28,223.28,0,0,1,156.47,315H0Z"/><path class="cls-2" d="M631.56,327.18l-87.38,11.37c-1.57,3.13-3.26,6.14-5.09,9.27C497.3,420.31,421.15,460.92,342.78,461.05c-78.24-.13-154.38-40.75-196.18-113.24-1.83-3.14-3.53-6.14-5.09-9.27L54.14,327.18l82.68,19.2c.91,1.83,2,3.53,3,5.36,43.23,75,122.12,117,203,117.15,81-.13,159.87-42.18,203.1-117.15,1-1.83,2.09-3.53,3-5.36Z"/></g></g></g></svg>